# Blender 4.2.3 LTS
# www.blender.org
o Circle
v -0.615725 0.615725 0.081038
v 0.000000 0.870767 0.081038
v -0.870767 -0.000000 0.081038
v -0.615725 -0.615725 0.081038
v 0.000000 -0.870767 0.081038
v 0.615725 -0.615725 0.081038
v 0.870767 -0.000000 0.081038
v 0.615725 0.615725 0.081038
v -0.615725 0.615725 0.241791
v -0.000000 0.870767 0.241791
v -0.870767 -0.000000 0.241791
v -0.615725 -0.615725 0.241791
v -0.000000 -0.870767 0.241791
v 0.615725 -0.615725 0.241791
v 0.870767 -0.000000 0.241791
v 0.615725 0.615725 0.241791
v 0.025184 0.233548 0.241791
v 0.027659 0.242218 0.081038
v 0.145349 0.519493 0.081038
v 0.145349 0.519493 0.241791
v -0.025121 -0.175869 0.241791
v -0.025543 -0.176943 0.081038
v 0.011513 -0.147880 0.241791
v 0.011303 -0.147171 0.081038
v -0.007068 -0.108987 0.241791
v 0.018383 -0.167082 0.241791
v 0.018072 -0.166349 0.081038
v 0.140020 -0.435750 0.241791
v 0.140020 -0.435750 0.081038
v 0.003724 -0.107706 0.081038
v 0.010122 0.173767 0.241791
v -0.012231 0.264341 0.241791
v -0.011864 0.263280 0.081038
v -0.105786 0.519493 0.241791
v -0.105786 0.519493 0.081038
v -0.007312 0.249170 0.241791
v -0.007866 0.250922 0.081038
v 0.007091 -0.129679 0.241791
v 0.007161 -0.129958 0.081038
v -0.001894 -0.086694 0.241791
v -0.001874 -0.086693 0.081038
v -0.020948 -0.164427 0.241791
v 0.000794 -0.086693 0.241791
v 0.014135 -0.155944 0.241791
v 0.013887 -0.155230 0.081038
v 0.023487 0.227047 0.081038
v -0.019831 -0.161214 0.081038
v 0.020101 0.212784 0.241791
v -0.013100 -0.137530 0.241791
v -0.012863 -0.136434 0.081038
v 0.003713 0.205821 0.081038
v -0.009098 -0.118554 0.081038
v 0.002912 -0.102145 0.241791
v 0.034058 0.260725 0.241791
v 0.032016 0.255386 0.081038
v 0.010200 0.173769 0.081038
v 0.007240 0.188893 0.241791
v 0.002507 0.211304 0.241791
v 0.197307 0.045868 0.081038
v 0.197307 0.045868 0.241791
v 0.478418 -0.435750 0.081038
v 0.478418 -0.435750 0.241791
v -0.479490 -0.435750 0.081038
v -0.479490 -0.435750 0.241791
v 0.035402 0.263781 0.081038
v 0.465761 0.519493 0.081038
v 0.465761 0.519493 0.241791
v -0.137094 -0.435750 0.241791
v -0.137094 -0.435750 0.081038
v 0.015379 0.188928 0.241791
v 0.012733 0.173769 0.081038
v 0.012787 0.173767 0.241791
v 0.000784 -0.086693 0.081038
v -0.005055 -0.100014 0.081038
v -0.002103 0.230483 0.081038
v 0.029433 0.247894 0.241791
v 0.009318 -0.139873 0.241791
v 0.009144 -0.139169 0.081038
v -0.002217 0.230754 0.241791
v -0.453510 0.519493 0.081038
v -0.453510 0.519493 0.241791
v 0.018639 0.205920 0.081038
v -0.015944 -0.148336 0.081038
v -0.193050 0.040539 0.241791
v -0.193050 0.040539 0.081038
v -0.017509 -0.153783 0.241791
v 0.000000 1.000000 0.034655
v 0.000000 0.962489 0.000000
v -0.680583 0.680583 0.000000
v -0.707107 0.707107 0.034655
v -0.962489 0.000000 0.000000
v -1.000000 -0.000000 0.034655
v -0.680583 -0.680583 -0.000000
v -0.707107 -0.707107 0.034655
v 0.000000 -0.962489 -0.000000
v 0.000000 -1.000000 0.034655
v 0.680583 -0.680583 -0.000000
v 0.707107 -0.707107 0.034655
v 0.962489 0.000000 0.000000
v 1.000000 -0.000000 0.034655
v 0.680583 0.680583 0.000000
v 0.707107 0.707107 0.034655
v -0.615725 0.615725 0.034655
v -0.642249 0.642249 0.000000
v 0.000000 0.908278 0.000000
v 0.000000 0.870767 0.034655
v -0.870767 -0.000000 0.034655
v -0.908278 0.000000 0.000000
v -0.615725 -0.615725 0.034655
v -0.642249 -0.642249 -0.000000
v 0.000000 -0.870767 0.034655
v 0.000000 -0.908278 -0.000000
v 0.615725 -0.615725 0.034655
v 0.642249 -0.642249 -0.000000
v 0.870767 -0.000000 0.034655
v 0.908278 0.000000 0.000000
v 0.615725 0.615725 0.034655
v 0.642249 0.642249 0.000000
v 0.000000 0.962489 0.322829
v 0.000000 1.000000 0.288174
v -0.707107 0.707107 0.288174
v -0.680583 0.680583 0.322829
v -1.000000 -0.000000 0.288174
v -0.962489 -0.000000 0.322829
v -0.707107 -0.707107 0.288174
v -0.680583 -0.680583 0.322829
v 0.000000 -1.000000 0.288174
v 0.000000 -0.962489 0.322829
v 0.707107 -0.707107 0.288174
v 0.680583 -0.680583 0.322829
v 1.000000 -0.000000 0.288174
v 0.962489 -0.000000 0.322829
v 0.707107 0.707107 0.288174
v 0.680583 0.680583 0.322829
v -0.642249 0.642249 0.322829
v -0.615725 0.615725 0.288174
v -0.000000 0.870767 0.288174
v 0.000000 0.908278 0.322829
v -0.908278 -0.000000 0.322829
v -0.870767 -0.000000 0.288174
v -0.642249 -0.642249 0.322829
v -0.615725 -0.615725 0.288174
v 0.000000 -0.908278 0.322829
v -0.000000 -0.870767 0.288174
v 0.642249 -0.642249 0.322829
v 0.615725 -0.615725 0.288174
v 0.908278 -0.000000 0.322829
v 0.870767 -0.000000 0.288174
v 0.642249 0.642249 0.322829
v 0.615725 0.615725 0.288174
vn 0.9588 -0.2839 -0.0006
vn 0.9887 0.1501 -0.0002
vn -0.0000 -0.0000 1.0000
vn -0.9512 -0.3085 -0.0001
vn -0.9801 -0.1984 0.0006
vn 0.9713 -0.2378 -0.0006
vn -0.9651 0.2618 -0.0005
vn -0.9785 0.2060 -0.0000
vn 0.9274 -0.3741 0.0006
vn -0.9733 -0.2295 0.0005
vn 0.9407 -0.3391 -0.0007
vn -0.9770 0.2131 -0.0003
vn -0.9741 0.2261 0.0004
vn 0.9835 -0.1807 0.0008
vn -0.9784 -0.2067 -0.0003
vn 0.9810 -0.1941 -0.0006
vn -0.0000 -0.0000 -1.0000
vn -0.0000 1.0000 -0.0000
vn 0.3827 0.9239 -0.0000
vn -0.9239 -0.3827 -0.0000
vn -0.3827 -0.9239 -0.0000
vn 0.3827 -0.9239 -0.0000
vn 0.9239 -0.3827 -0.0000
vn 0.9239 0.3827 -0.0000
vn -0.3827 0.9239 -0.0000
vn -0.9239 0.3827 -0.0000
vn -0.6533 0.2706 -0.7071
vn -0.0000 -1.0000 -0.0000
vn -0.9395 0.3426 0.0002
vn -0.0002 1.0000 -0.0000
vn -0.9515 0.3075 -0.0005
vn 0.9776 0.2105 0.0001
vn 0.8785 0.4777 -0.0000
vn -0.8636 -0.5041 -0.0000
vn -0.9389 -0.3442 0.0001
vn 0.9110 0.4124 0.0001
vn 0.9187 -0.3950 -0.0000
vn 0.9359 0.3523 0.0001
vn 0.9522 0.3053 0.0001
vn 0.9907 0.1358 -0.0001
vn -0.8700 0.4931 -0.0000
vn 0.9655 0.2604 0.0001
vn 0.8570 -0.5154 -0.0000
vn -0.9638 -0.2666 -0.0002
vn -0.9183 0.3958 -0.0000
vn -0.6533 -0.2706 -0.7071
vn 0.2706 -0.6533 -0.7071
vn 0.6533 -0.2706 -0.7071
vn 0.6533 -0.2706 0.7071
vn -0.2706 -0.6533 -0.7071
vn -0.2706 0.6533 -0.7071
vn 0.2706 0.6533 -0.7071
vn 0.6533 0.2706 -0.7071
vn -0.6533 -0.2706 0.7071
vn 0.2706 0.6533 0.7071
vn 0.2706 -0.6533 0.7071
vn -0.6533 0.2706 0.7071
vn 0.6533 0.2706 0.7071
vn -0.2706 -0.6533 0.7071
vn -0.2706 0.6533 0.7071
vn 0.9642 -0.2651 0.0005
vn 0.9883 0.1527 0.0002
vn -0.9514 -0.3078 -0.0001
vn -0.9823 -0.1872 -0.0005
vn 0.9747 -0.2237 0.0007
vn -0.9681 0.2506 0.0003
vn -0.9784 0.2068 0.0001
vn -0.9718 -0.2360 -0.0003
vn 0.9494 -0.3142 0.0006
vn -0.9727 0.2323 -0.0001
vn 0.9857 -0.1685 -0.0003
vn -0.9399 0.3413 0.0003
vn -0.9573 0.2890 0.0005
vn 0.9770 0.2134 -0.0001
vn -0.9389 -0.3443 -0.0000
vn 0.9110 0.4124 -0.0000
vn 0.9186 -0.3951 0.0002
vn 0.9343 0.3564 -0.0002
vn 0.9510 0.3092 -0.0001
vn 0.9904 0.1386 0.0002
vn 0.9644 0.2645 -0.0001
vn -0.9625 -0.2714 0.0004
vn -0.9184 0.3957 -0.0002
vt 0.488502 0.584162
vt 0.489509 0.587690
vt 0.490231 0.590000
vt 0.481139 0.436358
vt 0.479769 0.445299
vt 0.479439 0.447562
vt 0.503600 0.642597
vt 0.501750 0.637262
vt 0.502688 0.637262
vt 0.473277 0.596692
vt 0.475053 0.591232
vt 0.475279 0.590519
vt 0.482405 0.559837
vt 0.481200 0.565991
vt 0.479765 0.572879
vt 0.486433 0.575713
vt 0.487811 0.581517
vt 0.472923 0.433163
vt 0.471766 0.428766
vt 0.471129 0.426550
vt 0.474552 0.440885
vt 0.473020 0.433609
vt 0.492113 0.595221
vt 0.491282 0.593048
vt 0.492660 0.596465
vt 0.479274 0.575110
vt 0.477398 0.582915
vt 0.475378 0.444778
vt 0.476197 0.448429
vt 0.477483 0.453850
vt 0.662093 0.758926
vt 0.804618 0.576112
vt 0.714867 0.792791
vt 0.484512 0.566005
vt 0.483435 0.559837
vt 0.485838 0.572920
vt 0.500683 0.530476
vt 0.499213 0.540166
vt 0.495701 0.537758
vt 0.521834 0.554687
vt 0.523826 0.559230
vt 0.524828 0.552064
vt 0.535231 0.311812
vt 0.672931 0.311812
vt 0.765989 0.776862
vt 0.478254 0.896046
vt 0.071335 0.489127
vt 0.190519 0.201392
vt 0.478254 0.082208
vt 0.765989 0.201392
vt 0.885172 0.489127
vt 0.201312 0.212185
vt 0.478254 0.119532
vt 0.216911 0.227784
vt 0.227704 0.739677
vt 0.478254 0.843458
vt 0.201312 0.766069
vt 0.478254 0.858722
vt 0.478254 0.880782
vt 0.755196 0.766069
vt 0.739597 0.750470
vt 0.755196 0.212185
vt 0.478254 0.097472
vt 0.847849 0.489127
vt 0.739597 0.227784
vt 0.869909 0.489127
vt 0.108659 0.489127
vt 0.216911 0.750470
vt 0.478254 0.134796
vt 0.728804 0.238577
vt 0.086599 0.489127
vt 0.547462 0.422767
vt 0.489347 0.514222
vt 0.449943 0.422767
vt 0.733551 0.378804
vt 0.686723 0.440184
vt 0.820533 0.588797
vt 0.567622 0.592253
vt 0.733551 0.798790
vt 0.682406 0.765970
vt 0.313566 0.798790
vt 0.523558 0.885772
vt 0.368889 0.765970
vt 0.573130 0.765970
vt 0.313566 0.378804
vt 0.226584 0.588797
vt 0.360029 0.440184
vt 0.590850 0.604440
vt 0.487480 0.765970
vt 0.493884 0.669135
vt 0.549337 0.758926
vt 0.460961 0.758926
vt 0.510173 0.667863
vt 0.495615 0.663797
vt 0.508546 0.663348
vt 0.519512 0.678588
vt 0.535632 0.678759
vt 0.534477 0.675896
vt 0.507051 0.658299
vt 0.497408 0.657316
vt 0.499070 0.650471
vt 0.500736 0.642585
vt 0.505262 0.650992
vt 0.190519 0.776862
vt 0.728804 0.739677
vt 0.832585 0.489127
vt 0.527037 0.648061
vt 0.529915 0.659026
vt 0.527901 0.648061
vt 0.531569 0.666231
vt 0.524825 0.658992
vt 0.522841 0.667403
vt 0.518121 0.538207
vt 0.526677 0.541333
vt 0.527413 0.538604
vt 0.430252 0.590378
vt 0.191757 0.576112
vt 0.329451 0.422767
vt 0.529722 0.532064
vt 0.516795 0.533815
vt 0.528294 0.535856
vt 0.666547 0.422767
vt 0.714867 0.359433
vt 0.498188 0.882542
vt 0.457719 0.602623
vt 0.338594 0.758926
vt 0.281509 0.792791
vt 0.281509 0.359433
vt 0.227704 0.238577
vt 0.123923 0.489127
vt 0.422468 0.311812
vt 0.283141 0.311812
vt 0.422468 0.311812
vt 0.537399 0.700519
vt 0.667781 0.700519
vt 0.469730 0.422219
vt 0.467860 0.417126
vt 0.468032 0.417563
vt 0.478577 0.453850
vt 0.477491 0.453850
vt 0.470184 0.423526
vt 0.481975 0.432497
vt 0.481168 0.436244
vt 0.399698 0.505623
vt 0.293712 0.700519
vt 0.483457 0.559836
vt 0.558542 0.507792
vt 0.435208 0.700519
vt 0.473426 0.596260
vt 0.485734 0.421138
vt 0.485608 0.421437
vt 0.484006 0.425670
vt 0.483905 0.425961
vt 0.482939 0.428952
vt 0.482853 0.429240
vt 0.478573 0.453850
vt 0.498188 0.269681
vt 0.571312 0.440184
vt 0.514847 0.528450
vt 0.520876 0.674374
vt 0.532991 0.671405
vt 0.497521 0.545603
vt 0.493578 0.527713
vt 0.498467 0.545603
vt 0.501467 0.526889
vt 0.482046 0.432210
vt 0.523558 0.291822
vt 0.476802 0.440184
vt 0.504657 0.517314
vt 0.490816 0.518248
vt 0.503162 0.521233
vt 0.492026 0.521994
vt 0.502239 0.524071
vt 0.519171 0.542266
vt 0.520455 0.548364
vt 0.526001 0.544475
vt 0.522919 0.559230
vt 0.477352 0.583025
vt 0.482373 0.559836
s 0
f 17/1/1 18/2/1 76/3/1
f 38/4/2 30/5/2 53/6/2
f 70/7/3 31/8/3 72/9/3
f 32/10/4 37/11/4 36/12/4
f 56/13/5 57/14/5 51/15/5
f 48/16/6 46/17/6 17/1/6
f 49/18/7 83/19/7 86/20/7
f 49/18/8 52/21/8 50/22/8
f 54/23/9 55/24/9 65/25/9
f 58/26/10 75/27/10 51/15/10
f 76/3/11 55/24/11 54/23/11
f 25/28/12 74/29/12 52/21/12
f 40/30/13 74/29/13 25/28/13
f 67/31/3 15/32/3 16/33/3
f 70/34/14 71/35/14 82/36/14
f 51/15/15 57/14/15 58/26/15
f 38/37/3 53/38/3 25/39/3
f 48/16/16 70/34/16 82/36/16
f 74/40/17 73/41/17 30/42/17
f 28/43/18 61/44/18 29/43/18
f 133/45/19 87/46/19 120/46/19
f 123/47/20 94/48/20 125/48/20
f 125/48/21 96/49/21 127/49/21
f 127/49/22 98/50/22 129/50/22
f 129/50/23 100/51/23 131/51/23
f 131/51/24 102/45/24 133/45/24
f 126/52/3 143/53/3 141/54/3
f 1/55/22 106/56/22 2/56/22
f 122/57/3 138/58/3 119/59/3
f 134/60/3 138/58/3 149/61/3
f 130/62/3 143/53/3 128/63/3
f 130/62/3 147/64/3 145/65/3
f 134/60/3 147/64/3 132/66/3
f 122/57/3 139/67/3 135/68/3
f 13/69/25 146/70/25 14/70/25
f 93/52/17 112/53/17 95/63/17
f 89/57/17 108/67/17 91/71/17
f 101/60/17 116/64/17 118/61/17
f 97/62/17 112/53/17 114/65/17
f 93/52/17 108/67/17 110/54/17
f 101/60/17 105/58/17 88/59/17
f 97/62/17 116/64/17 99/66/17
f 10/56/22 136/55/22 9/55/22
f 28/72/3 21/73/3 68/74/3
f 6/75/17 61/76/17 7/77/17
f 60/78/3 15/32/3 67/31/3
f 8/79/17 7/77/17 66/80/17
f 1/81/17 2/82/17 80/83/17
f 2/82/17 8/79/17 66/80/17
f 19/84/17 2/82/17 66/80/17
f 4/85/17 3/86/17 63/87/17
f 3/86/17 1/81/17 80/83/17
f 59/88/17 7/77/17 61/76/17
f 35/89/17 80/83/17 2/82/17
f 2/82/17 19/84/17 35/89/17
f 32/90/3 20/91/3 34/92/3
f 54/93/3 36/94/3 76/95/3
f 33/96/17 65/97/17 55/98/17
f 17/99/3 36/94/3 79/100/3
f 70/7/3 58/101/3 57/102/3
f 48/103/3 79/100/3 58/101/3
f 121/104/26 92/47/26 123/47/26
f 8/105/20 115/106/20 7/106/20
f 56/107/17 82/108/17 71/109/17
f 46/110/17 51/111/17 75/112/17
f 83/113/17 78/114/17 24/115/17
f 92/47/27 89/57/27 91/71/27
f 84/116/3 11/117/3 64/118/3
f 126/52/3 139/67/3 124/71/3
f 27/119/17 47/120/17 45/121/17
f 62/122/3 14/123/3 15/32/3
f 34/92/3 20/91/3 10/124/3
f 20/91/3 67/31/3 10/124/3
f 85/125/17 3/86/17 80/83/17
f 81/126/3 34/92/3 10/124/3
f 16/33/3 10/124/3 67/31/3
f 10/124/3 9/127/3 81/126/3
f 9/127/3 11/117/3 81/126/3
f 11/117/3 12/128/3 64/118/3
f 89/57/17 105/58/17 104/68/17
f 14/70/26 148/106/26 15/106/26
f 15/106/20 150/105/20 16/105/20
f 4/129/24 107/130/24 3/130/24
f 69/131/18 64/132/18 68/133/18
f 120/46/25 90/104/25 121/104/25
f 11/130/24 142/129/24 12/129/24
f 9/55/23 140/130/23 11/130/23
f 5/69/19 109/129/19 4/129/19
f 16/105/21 137/56/21 10/56/21
f 6/70/25 111/69/25 5/69/25
f 12/129/19 144/69/19 13/69/19
f 20/134/28 66/135/28 67/135/28
f 42/136/29 22/137/29 21/138/29
f 43/139/30 41/140/30 40/30/30
f 86/20/31 47/141/31 42/136/31
f 7/106/26 113/70/26 6/70/26
f 38/4/32 78/142/32 39/143/32
f 85/144/33 81/145/33 84/144/33
f 72/146/28 56/13/28 71/35/28
f 59/147/34 62/44/34 60/147/34
f 32/10/35 35/148/35 33/149/35
f 26/150/36 29/43/36 27/151/36
f 20/134/37 65/25/37 19/134/37
f 44/152/38 27/151/38 45/153/38
f 23/154/39 45/153/39 24/155/39
f 53/6/40 73/156/40 43/139/40
f 80/145/28 34/148/28 81/145/28
f 13/157/3 14/123/3 28/72/3
f 14/123/3 62/122/3 28/72/3
f 29/158/17 22/159/17 27/119/17
f 68/74/3 13/157/3 28/72/3
f 35/89/17 65/97/17 33/96/17
f 55/98/17 37/160/17 33/96/17
f 18/161/17 75/112/17 37/160/17
f 40/162/3 25/39/3 53/38/3
f 25/39/3 49/163/3 38/37/3
f 53/38/3 43/164/3 40/162/3
f 77/165/3 38/37/3 49/163/3
f 59/147/41 67/135/41 66/135/41
f 77/166/42 24/155/42 78/142/42
f 63/132/43 84/144/43 64/132/43
f 61/76/17 6/75/17 29/158/17
f 6/75/17 5/167/17 29/158/17
f 12/128/3 68/74/3 64/118/3
f 4/85/17 69/168/17 5/167/17
f 29/158/17 5/167/17 69/168/17
f 26/169/3 42/170/3 21/73/3
f 44/171/3 86/172/3 42/170/3
f 23/173/3 49/163/3 86/172/3
f 50/174/17 52/175/17 39/176/17
f 52/175/17 74/40/17 30/42/17
f 39/176/17 78/114/17 50/174/17
f 52/175/17 30/42/17 39/176/17
f 74/40/17 41/177/17 73/41/17
f 36/12/44 75/27/44 79/178/44
f 68/133/45 22/137/45 69/131/45
f 115/106/46 118/61/46 116/64/46
f 98/50/47 95/63/47 97/62/47
f 106/56/47 104/68/47 105/58/47
f 107/130/48 104/68/48 103/55/48
f 135/68/49 140/130/49 136/55/49
f 106/56/50 118/61/50 117/105/50
f 111/69/51 114/65/51 112/53/51
f 111/69/52 110/54/52 109/129/52
f 94/48/46 91/71/46 93/52/46
f 96/49/50 93/52/50 95/63/50
f 102/45/53 99/66/53 101/60/53
f 100/51/48 97/62/48 99/66/48
f 90/104/51 88/59/51 89/57/51
f 87/46/52 101/60/52 88/59/52
f 150/105/54 147/64/54 149/61/54
f 107/130/53 110/54/53 108/67/53
f 45/121/17 83/113/17 24/115/17
f 141/54/55 144/69/55 142/129/55
f 136/55/56 138/58/56 135/68/56
f 145/65/57 148/106/57 146/70/57
f 142/129/58 139/67/58 141/54/58
f 149/61/59 137/56/59 150/105/59
f 146/70/60 143/53/60 145/65/60
f 133/45/55 119/59/55 134/60/55
f 125/48/59 128/63/59 126/52/59
f 129/50/49 132/66/49 130/62/49
f 134/60/58 131/51/58 133/45/58
f 121/104/57 124/71/57 122/57/57
f 115/106/27 114/65/27 113/70/27
f 126/52/54 123/47/54 125/48/54
f 130/62/56 127/49/56 129/50/56
f 122/57/60 120/46/60 121/104/60
f 3/130/23 103/55/23 1/55/23
f 2/56/21 117/105/21 8/105/21
f 17/1/61 46/17/61 18/2/61
f 38/4/62 39/143/62 30/5/62
f 70/7/3 57/102/3 31/8/3
f 32/10/63 33/149/63 37/11/63
f 56/13/64 31/179/64 57/14/64
f 48/16/65 82/36/65 46/17/65
f 49/18/66 50/22/66 83/19/66
f 49/18/67 25/28/67 52/21/67
f 58/26/68 79/178/68 75/27/68
f 76/3/69 18/2/69 55/24/69
f 40/30/70 41/140/70 74/29/70
f 70/34/71 72/146/71 71/35/71
f 28/43/18 62/44/18 61/44/18
f 133/45/19 102/45/19 87/46/19
f 123/47/20 92/47/20 94/48/20
f 125/48/21 94/48/21 96/49/21
f 127/49/22 96/49/22 98/50/22
f 129/50/23 98/50/23 100/51/23
f 131/51/24 100/51/24 102/45/24
f 126/52/3 128/63/3 143/53/3
f 1/55/22 103/55/22 106/56/22
f 122/57/3 135/68/3 138/58/3
f 134/60/3 119/59/3 138/58/3
f 130/62/3 145/65/3 143/53/3
f 130/62/3 132/66/3 147/64/3
f 134/60/3 149/61/3 147/64/3
f 122/57/3 124/71/3 139/67/3
f 13/69/25 144/69/25 146/70/25
f 93/52/17 110/54/17 112/53/17
f 89/57/17 104/68/17 108/67/17
f 101/60/17 99/66/17 116/64/17
f 97/62/17 95/63/17 112/53/17
f 93/52/17 91/71/17 108/67/17
f 101/60/17 118/61/17 105/58/17
f 97/62/17 114/65/17 116/64/17
f 10/56/22 137/56/22 136/55/22
f 28/72/3 26/169/3 21/73/3
f 60/78/3 62/122/3 15/32/3
f 59/88/17 66/80/17 7/77/17
f 32/90/3 54/93/3 20/91/3
f 54/93/3 32/90/3 36/94/3
f 17/99/3 76/95/3 36/94/3
f 70/7/3 48/103/3 58/101/3
f 48/103/3 17/99/3 79/100/3
f 121/104/26 90/104/26 92/47/26
f 8/105/20 117/105/20 115/106/20
f 56/107/17 51/111/17 82/108/17
f 46/110/17 82/108/17 51/111/17
f 83/113/17 50/174/17 78/114/17
f 92/47/27 90/104/27 89/57/27
f 84/116/3 81/126/3 11/117/3
f 126/52/3 141/54/3 139/67/3
f 27/119/17 22/159/17 47/120/17
f 85/125/17 63/87/17 3/86/17
f 89/57/17 88/59/17 105/58/17
f 14/70/26 146/70/26 148/106/26
f 15/106/20 148/106/20 150/105/20
f 4/129/24 109/129/24 107/130/24
f 69/131/18 63/132/18 64/132/18
f 120/46/25 87/46/25 90/104/25
f 11/130/24 140/130/24 142/129/24
f 9/55/23 136/55/23 140/130/23
f 5/69/19 111/69/19 109/129/19
f 16/105/21 150/105/21 137/56/21
f 6/70/25 113/70/25 111/69/25
f 12/129/19 142/129/19 144/69/19
f 20/134/28 19/134/28 66/135/28
f 42/136/72 47/141/72 22/137/72
f 43/139/18 73/156/18 41/140/18
f 86/20/73 83/19/73 47/141/73
f 7/106/26 115/106/26 113/70/26
f 38/4/74 77/166/74 78/142/74
f 85/144/33 80/145/33 81/145/33
f 72/146/28 31/179/28 56/13/28
f 59/147/34 61/44/34 62/44/34
f 32/10/75 34/148/75 35/148/75
f 26/150/76 28/43/76 29/43/76
f 20/134/77 54/23/77 65/25/77
f 44/152/78 26/150/78 27/151/78
f 23/154/79 44/152/79 45/153/79
f 53/6/80 30/5/80 73/156/80
f 80/145/28 35/148/28 34/148/28
f 29/158/17 69/168/17 22/159/17
f 35/89/17 19/84/17 65/97/17
f 55/98/17 18/161/17 37/160/17
f 18/161/17 46/110/17 75/112/17
f 59/147/41 60/147/41 67/135/41
f 77/166/81 23/154/81 24/155/81
f 63/132/43 85/144/43 84/144/43
f 12/128/3 13/157/3 68/74/3
f 4/85/17 63/87/17 69/168/17
f 26/169/3 44/171/3 42/170/3
f 44/171/3 23/173/3 86/172/3
f 23/173/3 77/165/3 49/163/3
f 36/12/82 37/11/82 75/27/82
f 68/133/83 21/138/83 22/137/83
f 115/106/46 117/105/46 118/61/46
f 98/50/47 96/49/47 95/63/47
f 106/56/47 103/55/47 104/68/47
f 107/130/48 108/67/48 104/68/48
f 135/68/49 139/67/49 140/130/49
f 106/56/50 105/58/50 118/61/50
f 111/69/51 113/70/51 114/65/51
f 111/69/52 112/53/52 110/54/52
f 94/48/46 92/47/46 91/71/46
f 96/49/50 94/48/50 93/52/50
f 102/45/53 100/51/53 99/66/53
f 100/51/48 98/50/48 97/62/48
f 90/104/51 87/46/51 88/59/51
f 87/46/52 102/45/52 101/60/52
f 150/105/54 148/106/54 147/64/54
f 107/130/53 109/129/53 110/54/53
f 45/121/17 47/120/17 83/113/17
f 141/54/55 143/53/55 144/69/55
f 136/55/56 137/56/56 138/58/56
f 145/65/57 147/64/57 148/106/57
f 142/129/58 140/130/58 139/67/58
f 149/61/59 138/58/59 137/56/59
f 146/70/60 144/69/60 143/53/60
f 133/45/55 120/46/55 119/59/55
f 125/48/59 127/49/59 128/63/59
f 129/50/49 131/51/49 132/66/49
f 134/60/58 132/66/58 131/51/58
f 121/104/57 123/47/57 124/71/57
f 115/106/27 116/64/27 114/65/27
f 126/52/54 124/71/54 123/47/54
f 130/62/56 128/63/56 127/49/56
f 122/57/60 119/59/60 120/46/60
f 3/130/23 107/130/23 103/55/23
f 2/56/21 106/56/21 117/105/21
