# Blender 4.3.2
# www.blender.org
o Cube
v -0.902779 -1.000000 0.765288
v -0.765288 -1.000000 0.902779
v -0.765288 -0.902779 1.000000
v -0.902779 -0.765288 1.000000
v -1.000000 -0.765288 0.902779
v -1.000000 -0.902779 0.765288
v -0.862509 -1.000000 0.862509
v -0.941978 -0.941978 0.941978
v -0.765288 -0.971525 0.971525
v -0.862509 -0.862509 1.000000
v -0.971525 -0.765288 0.971525
v -1.000000 -0.862509 0.862509
v -0.971525 -0.971525 0.765288
v -0.902779 0.765288 1.000000
v -0.765288 0.902779 1.000000
v -0.765288 1.000000 0.902779
v -0.902779 1.000000 0.765288
v -1.000000 0.902779 0.765288
v -1.000000 0.765288 0.902779
v -0.862509 0.862509 1.000000
v -0.941978 0.941978 0.941978
v -0.765288 0.971525 0.971525
v -0.862509 1.000000 0.862509
v -0.971525 0.971525 0.765288
v -1.000000 0.862509 0.862509
v -0.971525 0.765288 0.971525
v -0.902779 -1.000000 -0.765288
v -1.000000 -0.902779 -0.765288
v -1.000000 -0.765288 -0.902779
v -0.902779 -0.765288 -1.000000
v -0.765288 -0.902779 -1.000000
v -0.765288 -1.000000 -0.902779
v -0.971525 -0.971525 -0.765288
v -0.941978 -0.941978 -0.941978
v -1.000000 -0.862509 -0.862509
v -0.971525 -0.765288 -0.971525
v -0.862509 -0.862509 -1.000000
v -0.765288 -0.971525 -0.971525
v -0.862509 -1.000000 -0.862509
v -0.902779 1.000000 -0.765288
v -0.765288 1.000000 -0.902779
v -0.765288 0.902779 -1.000000
v -0.902779 0.765288 -1.000000
v -1.000000 0.765288 -0.902779
v -1.000000 0.902779 -0.765288
v -0.862509 1.000000 -0.862509
v -0.941978 0.941978 -0.941978
v -0.765288 0.971525 -0.971525
v -0.862509 0.862509 -1.000000
v -0.971525 0.765288 -0.971525
v -1.000000 0.862509 -0.862509
v -0.971525 0.971525 -0.765288
v 0.902779 -1.000000 0.765288
v 1.000000 -0.902779 0.765288
v 1.000000 -0.765288 0.902779
v 0.902779 -0.765288 1.000000
v 0.765288 -0.902779 1.000000
v 0.765288 -1.000000 0.902779
v 0.971525 -0.971525 0.765288
v 0.941978 -0.941978 0.941978
v 1.000000 -0.862509 0.862509
v 0.971525 -0.765288 0.971525
v 0.862509 -0.862509 1.000000
v 0.765288 -0.971525 0.971525
v 0.862509 -1.000000 0.862509
v 0.902779 1.000000 0.765288
v 0.765288 1.000000 0.902779
v 0.765288 0.902779 1.000000
v 0.902779 0.765288 1.000000
v 1.000000 0.765288 0.902779
v 1.000000 0.902779 0.765288
v 0.862509 1.000000 0.862509
v 0.941978 0.941978 0.941978
v 0.765288 0.971525 0.971525
v 0.862509 0.862509 1.000000
v 0.971525 0.765288 0.971525
v 1.000000 0.862509 0.862509
v 0.971525 0.971525 0.765288
v 0.765288 -1.000000 -0.902779
v 0.765288 -0.902779 -1.000000
v 0.902779 -0.765288 -1.000000
v 1.000000 -0.765288 -0.902779
v 1.000000 -0.902779 -0.765288
v 0.902779 -1.000000 -0.765288
v 0.765288 -0.971525 -0.971525
v 0.941978 -0.941978 -0.941978
v 0.862509 -0.862509 -1.000000
v 0.971525 -0.765288 -0.971525
v 1.000000 -0.862509 -0.862509
v 0.971525 -0.971525 -0.765288
v 0.862509 -1.000000 -0.862509
v 0.765288 1.000000 -0.902779
v 0.902779 1.000000 -0.765288
v 1.000000 0.902779 -0.765288
v 1.000000 0.765288 -0.902779
v 0.902779 0.765288 -1.000000
v 0.765288 0.902779 -1.000000
v 0.862509 1.000000 -0.862509
v 0.941978 0.941978 -0.941978
v 0.971525 0.971525 -0.765288
v 1.000000 0.862509 -0.862509
v 0.971525 0.765288 -0.971525
v 0.862509 0.862509 -1.000000
v 0.765288 0.971525 -0.971525
v -1.000000 -0.840204 0.702713
v -1.000000 -0.702713 0.840204
v -1.000000 -0.799933 0.799933
v -1.000000 0.702713 0.840204
v -1.000000 0.840204 0.702713
v -1.000000 0.799933 0.799933
v -1.000000 0.840204 -0.702713
v -1.000000 0.702713 -0.840204
v -1.000000 0.799933 -0.799933
v -1.000000 -0.702713 -0.840204
v -1.000000 -0.840204 -0.702713
v -1.000000 -0.799933 -0.799933
v -0.702713 -0.840204 -1.000000
v -0.840204 -0.702713 -1.000000
v -0.799933 -0.799933 -1.000000
v -0.840204 0.702713 -1.000000
v -0.702713 0.840204 -1.000000
v -0.799933 0.799933 -1.000000
v 0.702713 0.840204 -1.000000
v 0.840204 0.702713 -1.000000
v 0.799933 0.799933 -1.000000
v 0.840204 -0.702713 -1.000000
v 0.702713 -0.840204 -1.000000
v 0.799933 -0.799933 -1.000000
v 1.000000 -0.840204 -0.702713
v 1.000000 -0.702713 -0.840204
v 1.000000 -0.799933 -0.799933
v 1.000000 0.702713 -0.840204
v 1.000000 0.840204 -0.702713
v 1.000000 0.799933 -0.799933
v 1.000000 0.840204 0.702713
v 1.000000 0.702713 0.840204
v 1.000000 0.799933 0.799933
v 1.000000 -0.702713 0.840204
v 1.000000 -0.840204 0.702713
v 1.000000 -0.799933 0.799933
v 0.702713 -0.840204 1.000000
v 0.840204 -0.702713 1.000000
v 0.799933 -0.799933 1.000000
v 0.840204 0.702713 1.000000
v 0.702713 0.840204 1.000000
v 0.799933 0.799933 1.000000
v -0.702713 0.840204 1.000000
v -0.840204 0.702713 1.000000
v -0.799933 0.799933 1.000000
v -0.840204 -0.702713 1.000000
v -0.702713 -0.840204 1.000000
v -0.799933 -0.799933 1.000000
v -0.840204 -1.000000 -0.702713
v -0.702713 -1.000000 -0.840204
v -0.799933 -1.000000 -0.799933
v 0.702713 -1.000000 -0.840204
v 0.840204 -1.000000 -0.702713
v 0.799933 -1.000000 -0.799933
v 0.840204 -1.000000 0.702713
v 0.702713 -1.000000 0.840204
v 0.799933 -1.000000 0.799933
v -0.702713 -1.000000 0.840204
v -0.840204 -1.000000 0.702713
v -0.799933 -1.000000 0.799933
v 0.840204 1.000000 -0.702713
v 0.702713 1.000000 -0.840204
v 0.799933 1.000000 -0.799933
v -0.702713 1.000000 -0.840204
v -0.840204 1.000000 -0.702713
v -0.799933 1.000000 -0.799933
v -0.840204 1.000000 0.702713
v -0.702713 1.000000 0.840204
v -0.799933 1.000000 0.799933
v 0.702713 1.000000 0.840204
v 0.840204 1.000000 0.702713
v 0.799933 1.000000 0.799933
vn -0.0000 -0.0000 1.0000
vn -0.0000 1.0000 -0.0000
vn -0.0000 -0.0000 -1.0000
vn -0.0000 -1.0000 -0.0000
vn 1.0000 -0.0000 -0.0000
vn -1.0000 -0.0000 -0.0000
vn -0.3780 -0.9125 0.1566
vn -0.1566 -0.9125 0.3780
vn -0.1566 -0.3780 0.9125
vn -0.3780 -0.1566 0.9125
vn -0.9125 -0.1566 0.3780
vn -0.9125 -0.3780 0.1566
vn -0.3780 0.1566 0.9125
vn -0.1566 0.3780 0.9125
vn -0.1566 0.9125 0.3780
vn -0.3780 0.9125 0.1566
vn -0.9125 0.3780 0.1566
vn -0.9125 0.1566 0.3780
vn -0.3780 -0.9125 -0.1566
vn -0.9125 -0.3780 -0.1566
vn -0.9125 -0.1566 -0.3780
vn -0.3780 -0.1566 -0.9125
vn -0.1566 -0.3780 -0.9125
vn -0.1566 -0.9125 -0.3780
vn -0.3780 0.9125 -0.1566
vn -0.1566 0.9125 -0.3780
vn -0.1566 0.3780 -0.9125
vn -0.3780 0.1566 -0.9125
vn -0.9125 0.1566 -0.3780
vn -0.9125 0.3780 -0.1566
vn 0.3780 -0.9125 0.1566
vn 0.9125 -0.3780 0.1566
vn 0.9125 -0.1566 0.3780
vn 0.3780 -0.1566 0.9125
vn 0.1566 -0.3780 0.9125
vn 0.1566 -0.9125 0.3780
vn 0.3780 0.9125 0.1566
vn 0.1566 0.9125 0.3780
vn 0.1566 0.3780 0.9125
vn 0.3780 0.1566 0.9125
vn 0.9125 0.1566 0.3780
vn 0.9125 0.3780 0.1566
vn 0.1566 -0.9125 -0.3780
vn 0.1566 -0.3780 -0.9125
vn 0.3780 -0.1566 -0.9125
vn 0.9125 -0.1566 -0.3780
vn 0.9125 -0.3780 -0.1566
vn 0.3780 -0.9125 -0.1566
vn 0.1566 0.9125 -0.3780
vn 0.3780 0.9125 -0.1566
vn 0.9125 0.3780 -0.1566
vn 0.9125 0.1566 -0.3780
vn 0.3780 0.1566 -0.9125
vn 0.1566 0.3780 -0.9125
vn -0.3827 -0.9239 -0.0000
vn -0.9239 -0.3827 -0.0000
vn -0.3827 -0.0000 0.9239
vn -0.9239 -0.0000 0.3827
vn -0.3827 0.9239 -0.0000
vn -0.9239 0.3827 -0.0000
vn -0.3827 -0.0000 -0.9239
vn -0.9239 -0.0000 -0.3827
vn -0.0000 -0.9239 -0.3827
vn -0.0000 -0.3827 -0.9239
vn -0.0000 0.9239 -0.3827
vn -0.0000 0.3827 -0.9239
vn 0.9239 -0.0000 -0.3827
vn 0.3827 -0.0000 -0.9239
vn 0.3827 -0.9239 -0.0000
vn 0.9239 -0.3827 -0.0000
vn 0.3827 0.9239 -0.0000
vn 0.9239 0.3827 -0.0000
vn 0.3827 -0.0000 0.9239
vn 0.9239 -0.0000 0.3827
vn -0.0000 -0.9239 0.3827
vn -0.0000 -0.3827 0.9239
vn -0.0000 0.9239 0.3827
vn -0.0000 0.3827 0.9239
vn -0.4239 -0.8791 0.2179
vn -0.2179 -0.8791 0.4239
vn -0.2179 -0.4239 0.8791
vn -0.4239 -0.2179 0.8791
vn -0.8791 -0.2179 0.4239
vn -0.8791 -0.4239 0.2179
vn -0.4239 0.2179 0.8791
vn -0.2179 0.4239 0.8791
vn -0.2179 0.8791 0.4239
vn -0.4239 0.8791 0.2179
vn -0.8791 0.4239 0.2179
vn -0.8791 0.2179 0.4239
vn -0.4239 -0.8791 -0.2179
vn -0.8791 -0.4239 -0.2179
vn -0.8791 -0.2179 -0.4239
vn -0.4239 -0.2179 -0.8791
vn -0.2179 -0.4239 -0.8791
vn -0.2179 -0.8791 -0.4239
vn -0.4239 0.8791 -0.2179
vn -0.2179 0.8791 -0.4239
vn -0.2179 0.4239 -0.8791
vn -0.4239 0.2179 -0.8791
vn -0.8791 0.2179 -0.4239
vn -0.8791 0.4239 -0.2179
vn 0.4239 -0.8791 0.2179
vn 0.8791 -0.4239 0.2179
vn 0.8791 -0.2179 0.4239
vn 0.4239 -0.2179 0.8791
vn 0.2179 -0.4239 0.8791
vn 0.2179 -0.8791 0.4239
vn 0.4239 0.8791 0.2179
vn 0.2179 0.8791 0.4239
vn 0.2179 0.4239 0.8791
vn 0.4239 0.2179 0.8791
vn 0.8791 0.2179 0.4239
vn 0.8791 0.4239 0.2179
vn 0.2179 -0.8791 -0.4239
vn 0.2179 -0.4239 -0.8791
vn 0.4239 -0.2179 -0.8791
vn 0.8791 -0.2179 -0.4239
vn 0.8791 -0.4239 -0.2179
vn 0.4239 -0.8791 -0.2179
vn 0.2179 0.8791 -0.4239
vn 0.4239 0.8791 -0.2179
vn 0.8791 0.4239 -0.2179
vn 0.8791 0.2179 -0.4239
vn 0.4239 0.2179 -0.8791
vn 0.2179 0.4239 -0.8791
vt 0.654071 0.964620
vt 0.643378 0.712782
vt 0.654071 0.702047
vt 0.011793 0.035380
vt 0.022528 0.287218
vt 0.011793 0.297953
vt 0.321540 0.631286
vt 0.310805 0.379449
vt 0.321540 0.368714
vt 0.630575 0.678460
vt 0.379699 0.689195
vt 0.369005 0.678460
vt 0.654873 0.297953
vt 0.644138 0.046115
vt 0.654873 0.035380
vt 0.368714 0.321540
vt 0.620551 0.310805
vt 0.631286 0.321540
vt 0.321540 0.297953
vt 0.310805 0.046115
vt 0.321540 0.035380
vt 0.297953 0.345127
vt 0.046115 0.355862
vt 0.035380 0.345127
vt 0.368714 0.654873
vt 0.620551 0.644138
vt 0.631286 0.654873
vt 0.297953 0.011793
vt 0.046115 0.022528
vt 0.035380 0.011793
vt 0.369005 0.988207
vt 0.619881 0.977472
vt 0.630575 0.988207
vt 0.631286 0.345127
vt 0.379449 0.355862
vt 0.368714 0.345127
vt 0.035380 0.654873
vt 0.287218 0.644138
vt 0.297953 0.654873
vt 0.345127 0.035380
vt 0.355862 0.287218
vt 0.345127 0.297953
vt 0.321540 0.964620
vt 0.310805 0.712782
vt 0.321540 0.702047
vt 0.297953 0.678460
vt 0.046115 0.689195
vt 0.035380 0.678460
vt 0.654873 0.631286
vt 0.644138 0.379449
vt 0.654873 0.368714
vt 0.035380 0.321540
vt 0.287218 0.310805
vt 0.297953 0.321540
vt 0.035380 0.988207
vt 0.287218 0.977472
vt 0.297953 0.988207
vt 0.011793 0.368714
vt 0.022528 0.620551
vt 0.011793 0.631286
vt 0.011793 0.702047
vt 0.022528 0.953885
vt 0.011793 0.964620
vt 0.345508 0.702047
vt 0.356202 0.953885
vt 0.345508 0.964620
vt 0.345127 0.368714
vt 0.355862 0.620551
vt 0.345127 0.631286
vt 0.352035 0.018702
vt 0.368714 -0.000000
vt 0.368714 0.011793
vt 0.333333 0.035380
vt 0.647189 0.685369
vt 0.665393 0.702047
vt 0.630148 0.666667
vt 0.314631 0.981298
vt 0.297953 1.000000
vt 0.333333 0.964620
vt 0.352390 0.685369
vt 0.368578 0.666667
vt 0.333333 0.702047
vt 0.018702 0.314631
vt -0.000000 0.297953
vt 0.035380 0.333333
vt 0.018702 0.981298
vt -0.000000 0.964620
vt 0.035380 1.000000
vt 0.631286 0.000000
vt 0.647965 0.018702
vt 0.631286 0.011793
vt 0.314631 0.685369
vt 0.333333 0.702047
vt 0.297953 0.666667
vt 0.314631 0.647965
vt 0.333333 0.631286
vt 0.666667 0.035380
vt 0.314631 0.314631
vt 0.297953 0.333333
vt 0.333333 0.297953
vt 0.018702 0.647965
vt 0.000000 0.631286
vt 0.035380 0.666667
vt 0.018702 0.685368
vt 0.035380 0.666667
vt 0.000000 0.702047
vt 0.368714 0.333333
vt 0.352035 0.314631
vt 0.647965 0.352035
vt 0.666667 0.368714
vt 0.631286 0.333333
vt 0.647189 0.981298
vt 0.630148 1.000000
vt 0.665393 0.964620
vt 0.333333 0.297953
vt 0.018702 0.018702
vt 0.035380 0.000000
vt 0.000000 0.035380
vt 0.352390 0.981298
vt 0.333333 0.964620
vt 0.368578 1.000000
vt 0.352035 0.352035
vt 0.368714 0.333333
vt 0.333333 0.368714
vt 0.666667 0.297953
vt 0.647965 0.314631
vt 0.314631 0.352035
vt 0.333333 0.368714
vt 0.297953 0.333333
vt 0.647965 0.647965
vt 0.631286 0.666667
vt 0.666667 0.631286
vt 0.631286 0.333333
vt 0.314631 0.018702
vt 0.333333 0.035380
vt 0.297953 0.000000
vt 0.352035 0.647965
vt 0.368714 0.666667
vt 0.018702 0.352035
vt 0.035380 0.333333
vt 0.000000 0.368714
vt 0.303897 0.970563
vt 0.310805 0.953885
vt 0.029437 0.970563
vt 0.029437 0.696103
vt 0.303897 0.696103
vt 0.303897 0.637230
vt 0.310805 0.620552
vt 0.029437 0.637230
vt 0.029437 0.362770
vt 0.303897 0.362770
vt 0.637230 0.637230
vt 0.644138 0.620551
vt 0.362770 0.637230
vt 0.362770 0.362770
vt 0.637230 0.362770
vt 0.636495 0.970563
vt 0.643377 0.953885
vt 0.363084 0.970563
vt 0.363084 0.696103
vt 0.636495 0.696104
vt 0.637230 0.029437
vt 0.620551 0.022528
vt 0.637230 0.303897
vt 0.362770 0.303897
vt 0.362770 0.029437
vt 0.303897 0.029437
vt 0.287218 0.022528
vt 0.303897 0.303897
vt 0.029437 0.303897
vt 0.029437 0.029437
vt 0.379448 0.022528
vt 0.022528 0.046115
vt 0.619881 0.689195
vt 0.644138 0.287218
vt 0.379448 0.310805
vt 0.310805 0.287218
vt 0.287218 0.355862
vt 0.379448 0.644138
vt 0.379699 0.977472
vt 0.620551 0.355862
vt 0.046115 0.644138
vt 0.355862 0.046115
vt 0.287218 0.689195
vt 0.046115 0.310805
vt 0.046115 0.977472
vt 0.022528 0.379448
vt 0.022528 0.712782
vt 0.356202 0.712782
vt 0.355862 0.379448
vt 0.338402 0.005069
vt 0.659901 0.671736
vt 0.328265 0.994931
vt 0.337940 0.671735
vt 0.005069 0.328265
vt 0.005069 0.994931
vt 0.661598 0.005069
vt 0.328265 0.671735
vt 0.328265 0.661598
vt 0.328265 0.328265
vt 0.005069 0.661598
vt 0.005069 0.671735
vt 0.338402 0.328265
vt 0.661598 0.338402
vt 0.659901 0.994931
vt 0.005069 0.005069
vt 0.337940 0.994931
vt 0.338402 0.338402
vt 0.661598 0.328265
vt 0.328265 0.338402
vt 0.661598 0.661598
vt 0.328265 0.005069
vt 0.338402 0.661598
vt 0.005069 0.338402
s 0
f 57/1/1 151/2/1 3/3/1
f 67/4/2 172/5/2 16/6/2
f 31/7/3 127/8/3 80/9/3
f 4/10/1 148/11/1 14/12/1
f 79/13/4 154/14/4 32/15/4
f 53/16/4 157/17/4 84/18/4
f 41/19/2 166/20/2 92/21/2
f 81/22/3 124/23/3 96/24/3
f 95/25/5 130/26/5 82/27/5
f 93/28/2 175/29/2 66/30/2
f 69/31/1 142/32/1 56/33/1
f 55/34/5 136/35/5 70/36/5
f 43/37/3 118/38/3 30/39/3
f 2/40/4 160/41/4 58/42/4
f 6/43/6 115/44/6 28/45/6
f 29/46/6 112/47/6 44/48/6
f 83/49/5 139/50/5 54/51/5
f 17/52/2 169/53/2 40/54/2
f 19/55/6 106/56/6 5/57/6
f 97/58/3 121/59/3 42/60/3
f 45/61/6 109/62/6 18/63/6
f 15/64/1 145/65/1 68/66/1
f 71/67/5 133/68/5 94/69/5
f 7/70/7 13/71/7 1/72/7
f 9/73/8 7/70/8 2/40/8
f 10/74/9 9/75/9 3/3/9
f 11/76/10 10/74/10 4/10/10
f 12/77/11 11/78/11 5/57/11
f 13/79/12 12/77/12 6/43/12
f 20/80/13 26/81/13 14/12/13
f 22/82/14 20/80/14 15/64/14
f 23/83/15 22/84/15 16/6/15
f 24/85/16 23/83/16 17/52/16
f 25/86/17 24/87/17 18/63/17
f 26/88/18 25/86/18 19/55/18
f 33/89/19 39/90/19 27/91/19
f 35/92/20 33/93/20 28/45/20
f 36/94/21 35/92/21 29/46/21
f 37/95/22 36/94/22 30/39/22
f 38/96/23 37/95/23 31/7/23
f 39/90/24 38/97/24 32/15/24
f 46/98/25 52/99/25 40/54/25
f 48/100/26 46/98/26 41/19/26
f 49/101/27 48/102/27 42/60/27
f 50/103/28 49/101/28 43/37/28
f 51/104/29 50/105/29 44/48/29
f 52/106/30 51/104/30 45/61/30
f 59/107/31 65/108/31 53/16/31
f 61/109/32 59/110/32 54/51/32
f 62/111/33 61/109/33 55/34/33
f 63/112/34 62/113/34 56/33/34
f 64/114/35 63/112/35 57/1/35
f 65/108/36 64/115/36 58/42/36
f 72/116/37 78/117/37 66/30/37
f 74/118/38 72/116/38 67/4/38
f 75/119/39 74/120/39 68/66/39
f 76/121/40 75/119/40 69/31/40
f 77/122/41 76/123/41 70/36/41
f 78/124/42 77/122/42 71/67/42
f 85/125/43 91/126/43 79/13/43
f 87/127/44 85/128/44 80/9/44
f 88/129/45 87/127/45 81/22/45
f 89/130/46 88/131/46 82/27/46
f 90/132/47 89/130/47 83/49/47
f 91/126/48 90/133/48 84/18/48
f 98/134/49 104/135/49 92/21/49
f 100/136/50 98/134/50 93/28/50
f 101/137/51 100/96/51 94/69/51
f 102/138/52 101/137/52 95/25/52
f 103/139/53 102/140/53 96/24/53
f 104/141/54 103/139/54 97/58/54
f 1/72/55 33/89/55 27/91/55
f 13/79/56 28/45/56 33/93/56
f 14/12/57 11/76/57 4/10/57
f 26/88/58 5/57/58 11/78/58
f 40/54/59 24/85/59 17/52/59
f 52/106/60 18/63/60 24/87/60
f 30/39/61 50/103/61 43/37/61
f 36/94/62 44/48/62 50/105/62
f 32/15/63 85/125/63 79/13/63
f 38/96/64 80/9/64 85/128/64
f 92/21/65 48/100/65 41/19/65
f 104/141/66 42/60/66 48/102/66
f 82/27/67 102/138/67 95/25/67
f 88/129/68 96/24/68 102/140/68
f 84/18/69 59/107/69 53/16/69
f 90/132/70 54/51/70 59/110/70
f 66/30/71 100/136/71 93/28/71
f 78/124/72 94/69/72 100/96/72
f 56/33/73 76/121/73 69/31/73
f 62/111/74 70/36/74 76/123/74
f 58/42/75 9/73/75 2/40/75
f 64/114/76 3/3/76 9/75/76
f 16/6/77 74/118/77 67/4/77
f 22/82/78 68/66/78 74/120/78
f 6/43/6 107/142/6 105/143/6
f 107/142/6 5/57/6 106/56/6
f 18/63/6 110/144/6 25/86/6
f 110/144/6 19/55/6 25/86/6
f 44/48/6 113/145/6 51/104/6
f 113/145/6 45/61/6 51/104/6
f 28/45/6 116/146/6 35/92/6
f 116/146/6 29/46/6 35/92/6
f 31/7/3 119/147/3 117/148/3
f 119/147/3 30/39/3 118/38/3
f 42/60/3 122/149/3 49/101/3
f 122/149/3 43/37/3 49/101/3
f 96/24/3 125/150/3 103/139/3
f 125/150/3 97/58/3 103/139/3
f 80/9/3 128/151/3 87/127/3
f 128/151/3 81/22/3 87/127/3
f 83/49/5 131/152/5 129/153/5
f 131/152/5 82/27/5 130/26/5
f 94/69/5 134/154/5 101/137/5
f 134/154/5 95/25/5 101/137/5
f 70/36/5 137/155/5 77/122/5
f 137/155/5 71/67/5 77/122/5
f 54/51/5 140/156/5 61/109/5
f 140/156/5 55/34/5 61/109/5
f 57/1/1 143/157/1 141/158/1
f 143/157/1 56/33/1 142/32/1
f 68/66/1 146/159/1 75/119/1
f 146/159/1 69/31/1 75/119/1
f 14/12/1 149/160/1 20/80/1
f 149/160/1 15/64/1 20/80/1
f 3/3/1 152/161/1 10/74/1
f 152/161/1 4/10/1 10/74/1
f 27/91/4 155/162/4 153/163/4
f 155/162/4 32/15/4 154/14/4
f 84/18/4 158/164/4 91/126/4
f 158/164/4 79/13/4 91/126/4
f 58/42/4 161/165/4 65/108/4
f 161/165/4 53/16/4 65/108/4
f 1/72/4 164/166/4 7/70/4
f 164/166/4 2/40/4 7/70/4
f 93/28/2 167/167/2 165/168/2
f 167/167/2 92/21/2 166/20/2
f 40/54/2 170/169/2 46/98/2
f 170/169/2 41/19/2 46/98/2
f 16/6/2 173/170/2 23/83/2
f 173/170/2 17/52/2 23/83/2
f 66/30/2 176/171/2 72/116/2
f 176/171/2 67/4/2 72/116/2
f 27/91/4 163/172/4 1/72/4
f 57/1/1 141/158/1 151/2/1
f 67/4/2 174/173/2 172/5/2
f 31/7/3 117/148/3 127/8/3
f 4/10/1 150/174/1 148/11/1
f 79/13/4 156/175/4 154/14/4
f 53/16/4 159/176/4 157/17/4
f 41/19/2 168/177/2 166/20/2
f 81/22/3 126/178/3 124/23/3
f 95/25/5 132/179/5 130/26/5
f 93/28/2 165/168/2 175/29/2
f 69/31/1 144/180/1 142/32/1
f 55/34/5 138/181/5 136/35/5
f 43/37/3 120/182/3 118/38/3
f 2/40/4 162/183/4 160/41/4
f 6/43/6 105/143/6 115/44/6
f 29/46/6 114/184/6 112/47/6
f 83/49/5 129/153/5 139/50/5
f 17/52/2 171/185/2 169/53/2
f 19/55/6 108/186/6 106/56/6
f 97/58/3 123/187/3 121/59/3
f 45/61/6 111/188/6 109/62/6
f 15/64/1 147/189/1 145/65/1
f 71/67/5 135/190/5 133/68/5
f 7/70/79 8/191/79 13/71/79
f 9/73/80 8/191/80 7/70/80
f 10/74/81 8/192/81 9/75/81
f 11/76/82 8/192/82 10/74/82
f 12/77/83 8/193/83 11/78/83
f 13/79/84 8/193/84 12/77/84
f 20/80/85 21/194/85 26/81/85
f 22/82/86 21/194/86 20/80/86
f 23/83/87 21/195/87 22/84/87
f 24/85/88 21/195/88 23/83/88
f 25/86/89 21/196/89 24/87/89
f 26/88/90 21/196/90 25/86/90
f 33/89/91 34/197/91 39/90/91
f 35/92/92 34/198/92 33/93/92
f 36/94/93 34/198/93 35/92/93
f 37/95/94 34/199/94 36/94/94
f 38/96/95 34/199/95 37/95/95
f 39/90/96 34/197/96 38/97/96
f 46/98/97 47/200/97 52/99/97
f 48/100/98 47/200/98 46/98/98
f 49/101/99 47/201/99 48/102/99
f 50/103/100 47/201/100 49/101/100
f 51/104/101 47/202/101 50/105/101
f 52/106/102 47/202/102 51/104/102
f 59/107/103 60/203/103 65/108/103
f 61/109/104 60/204/104 59/110/104
f 62/111/105 60/204/105 61/109/105
f 63/112/106 60/205/106 62/113/106
f 64/114/107 60/205/107 63/112/107
f 65/108/108 60/203/108 64/115/108
f 72/116/109 73/206/109 78/117/109
f 74/118/110 73/206/110 72/116/110
f 75/119/111 73/207/111 74/120/111
f 76/121/112 73/207/112 75/119/112
f 77/122/113 73/208/113 76/123/113
f 78/124/114 73/208/114 77/122/114
f 85/125/115 86/209/115 91/126/115
f 87/127/116 86/210/116 85/128/116
f 88/129/117 86/210/117 87/127/117
f 89/130/118 86/211/118 88/131/118
f 90/132/119 86/211/119 89/130/119
f 91/126/120 86/209/120 90/133/120
f 98/134/121 99/212/121 104/135/121
f 100/136/122 99/212/122 98/134/122
f 101/137/123 99/213/123 100/96/123
f 102/138/124 99/213/124 101/137/124
f 103/139/125 99/214/125 102/140/125
f 104/141/126 99/214/126 103/139/126
f 1/72/55 13/71/55 33/89/55
f 13/79/56 6/43/56 28/45/56
f 14/12/57 26/81/57 11/76/57
f 26/88/58 19/55/58 5/57/58
f 40/54/59 52/99/59 24/85/59
f 52/106/60 45/61/60 18/63/60
f 30/39/61 36/94/61 50/103/61
f 36/94/62 29/46/62 44/48/62
f 32/15/63 38/97/63 85/125/63
f 38/96/64 31/7/64 80/9/64
f 92/21/65 104/135/65 48/100/65
f 104/141/66 97/58/66 42/60/66
f 82/27/67 88/131/67 102/138/67
f 88/129/68 81/22/68 96/24/68
f 84/18/69 90/133/69 59/107/69
f 90/132/70 83/49/70 54/51/70
f 66/30/71 78/117/71 100/136/71
f 78/124/72 71/67/72 94/69/72
f 56/33/73 62/113/73 76/121/73
f 62/111/74 55/34/74 70/36/74
f 58/42/75 64/115/75 9/73/75
f 64/114/76 57/1/76 3/3/76
f 16/6/77 22/84/77 74/118/77
f 22/82/78 15/64/78 68/66/78
f 6/43/6 12/77/6 107/142/6
f 107/142/6 12/77/6 5/57/6
f 18/63/6 109/62/6 110/144/6
f 110/144/6 108/186/6 19/55/6
f 44/48/6 112/47/6 113/145/6
f 113/145/6 111/188/6 45/61/6
f 28/45/6 115/44/6 116/146/6
f 116/146/6 114/184/6 29/46/6
f 31/7/3 37/95/3 119/147/3
f 119/147/3 37/95/3 30/39/3
f 42/60/3 121/59/3 122/149/3
f 122/149/3 120/182/3 43/37/3
f 96/24/3 124/23/3 125/150/3
f 125/150/3 123/187/3 97/58/3
f 80/9/3 127/8/3 128/151/3
f 128/151/3 126/178/3 81/22/3
f 83/49/5 89/130/5 131/152/5
f 131/152/5 89/130/5 82/27/5
f 94/69/5 133/68/5 134/154/5
f 134/154/5 132/179/5 95/25/5
f 70/36/5 136/35/5 137/155/5
f 137/155/5 135/190/5 71/67/5
f 54/51/5 139/50/5 140/156/5
f 140/156/5 138/181/5 55/34/5
f 57/1/1 63/112/1 143/157/1
f 143/157/1 63/112/1 56/33/1
f 68/66/1 145/65/1 146/159/1
f 146/159/1 144/180/1 69/31/1
f 14/12/1 148/11/1 149/160/1
f 149/160/1 147/189/1 15/64/1
f 3/3/1 151/2/1 152/161/1
f 152/161/1 150/174/1 4/10/1
f 27/91/4 39/90/4 155/162/4
f 155/162/4 39/90/4 32/15/4
f 84/18/4 157/17/4 158/164/4
f 158/164/4 156/175/4 79/13/4
f 58/42/4 160/41/4 161/165/4
f 161/165/4 159/176/4 53/16/4
f 1/72/4 163/172/4 164/166/4
f 164/166/4 162/183/4 2/40/4
f 93/28/2 98/134/2 167/167/2
f 167/167/2 98/134/2 92/21/2
f 40/54/2 169/53/2 170/169/2
f 170/169/2 168/177/2 41/19/2
f 16/6/2 172/5/2 173/170/2
f 173/170/2 171/185/2 17/52/2
f 66/30/2 175/29/2 176/171/2
f 176/171/2 174/173/2 67/4/2
f 27/91/4 153/163/4 163/172/4
