# Blender 4.2.3 LTS
# www.blender.org
o Cube.001
v -0.527396 0.723894 0.145645
v -0.660561 0.647011 0.278810
v -0.604278 0.703293 0.222528
v -0.527396 0.723894 -0.145645
v -0.681161 0.570128 -0.299410
v -0.604278 0.703293 -0.222528
v -0.660561 0.647011 -0.278810
v 0.527396 0.723894 -0.145645
v 0.681161 0.570128 -0.299410
v 0.604278 0.703293 -0.222528
v 0.660561 0.647011 -0.278810
v 0.527396 0.723894 0.145645
v 0.604278 0.703293 0.222528
v 0.660561 0.647011 0.278810
v -0.681161 0.570128 0.299410
v 0.681161 0.570128 0.299410
v 0.513429 -0.369654 0.162067
v -0.513429 -0.369654 0.162067
v -0.513429 0.402396 0.162067
v 0.513429 0.402396 0.162067
v -0.513429 -0.369654 0.215938
v -0.596902 -0.453127 0.299410
v -0.524612 -0.380838 0.257674
v -0.555165 -0.411391 0.288227
v 0.596902 -0.453127 0.299410
v 0.513429 -0.369654 0.215938
v 0.555165 -0.411391 0.288227
v 0.524612 -0.380838 0.257674
v -0.596902 0.485868 0.299410
v -0.513429 0.402396 0.215938
v -0.555165 0.444132 0.288227
v -0.524612 0.413579 0.257674
v 0.513429 0.402396 0.215938
v 0.596902 0.485868 0.299410
v 0.524612 0.413579 0.257674
v 0.555165 0.444132 0.288227
v -0.681161 -0.475940 -0.299410
v -0.607028 -0.537387 -0.266825
v -0.659448 -0.519389 -0.289866
v 0.681161 -0.475940 -0.299410
v 0.607516 -0.537387 -0.265715
v 0.659591 -0.519389 -0.289541
v 0.607028 -0.537387 0.266824
v 0.681161 -0.475940 0.299410
v 0.659448 -0.519389 0.289866
v -0.607516 -0.537387 0.265714
v -0.681161 -0.475940 0.299410
v -0.659591 -0.519389 0.289540
vn -0.0984 0.9903 -0.0984
vn 0.0984 0.9903 0.0984
vn 0.0984 0.9903 -0.0984
vn -0.0000 -0.0000 -1.0000
vn -0.0000 0.1191 -0.9929
vn 1.0000 -0.0000 -0.0000
vn 0.9929 0.1191 -0.0000
vn -0.3332 0.8820 0.3332
vn -0.0984 0.9903 0.0984
vn -0.3332 0.8820 -0.3332
vn -0.9047 0.4260 -0.0000
vn -0.9929 0.1191 -0.0000
vn 0.3332 0.8820 -0.3332
vn -0.0000 0.4260 -0.9047
vn 0.3332 0.8820 0.3332
vn 0.9047 0.4260 -0.0000
vn -0.0000 0.4260 0.9047
vn -0.0000 0.1191 0.9929
vn -0.0000 -1.0000 -0.0000
vn 0.9901 -0.0000 0.1403
vn -0.0000 -0.9901 0.1403
vn -0.0331 0.0331 0.9989
vn -0.0000 -0.0000 1.0000
vn -0.0331 -0.0331 0.9989
vn 0.0331 -0.0331 0.9989
vn -0.9901 -0.0000 0.1403
vn -1.0000 -0.0000 -0.0000
vn -0.0000 0.9901 0.1403
vn -0.0000 0.8310 0.5563
vn -0.0000 0.7071 0.7071
vn -0.1316 0.1316 0.9825
vn 0.0331 0.0331 0.9989
vn -0.0000 -0.9659 0.2588
vn -0.0000 -0.7071 0.7071
vn 0.1124 -0.2379 0.9648
vn -0.1124 -0.2379 0.9648
vn 0.8310 -0.0000 0.5563
vn 0.7071 -0.0000 0.7071
vn 0.1316 0.1316 0.9825
vn -0.7071 -0.0000 0.7071
vn -0.8310 -0.0000 0.5563
vn -0.0000 1.0000 -0.0000
vn -0.1499 -0.9167 0.3703
vn -0.4815 -0.6733 -0.5610
vn -0.1483 -0.9161 -0.3725
vn -0.4819 -0.6726 0.5616
vn -0.6642 -0.4621 -0.5876
vn 0.6623 -0.4617 -0.5901
vn 0.4819 -0.6726 -0.5616
vn -0.6623 -0.4617 0.5901
vn 0.4815 -0.6733 0.5610
vn 0.6642 -0.4621 0.5876
vn 0.1483 -0.9161 0.3725
vn 0.1499 -0.9167 -0.3703
vt 0.870486 0.778323
vt 0.168577 0.952145
vt 0.168577 0.778323
vt 0.706389 0.787967
vt 0.706389 0.952145
vt 0.332674 0.952145
vt 0.704474 0.957992
vt 0.311506 0.957992
vt 0.311506 0.772476
vt 0.870486 0.952145
vt 0.677123 0.787782
vt 0.694959 0.947950
vt 0.197843 0.942686
vt 0.831543 0.952145
vt 0.996240 0.002598
vt 0.754067 0.184243
vt 0.754067 0.002598
vt 0.704474 0.772476
vt 0.902145 0.825385
vt 0.200236 0.825385
vt 0.207520 0.952145
vt 0.132449 0.825385
vt 0.996240 0.184243
vt 0.214509 0.952145
vt 0.739768 0.952012
vt 0.271806 0.952012
vt 0.271806 0.778456
vt 0.332674 0.787967
vt 0.739768 0.952012
vt 0.739768 0.778456
vt 0.823308 0.942364
vt 0.709004 0.781093
vt 0.677123 0.787782
vt 0.767256 0.949152
vt 0.767256 0.781222
vt 0.700433 0.778323
vt 0.727222 0.955147
vt 0.706726 0.781187
vt 0.179764 0.952145
vt 0.859372 0.952145
vt 0.197843 0.942686
vt 0.727557 0.954935
vt 0.177486 0.952238
vt 0.718344 0.957896
vt 0.867782 0.949280
vt 0.338591 0.778323
vt 0.727557 0.775433
s 1
f 4/1/1 12/2/2 8/3/3
f 37/4/4 5/5/5 9/6/5
f 40/7/6 9/8/7 16/9/7
f 4/1/1 3/2/8 1/3/9
f 6/1/10 2/2/11 3/3/8
f 2/3/11 5/10/12 15/2/12
f 4/3/1 10/10/13 6/2/10
f 10/1/13 7/2/14 6/3/10
f 11/1/14 5/2/5 7/3/14
f 12/1/2 10/2/13 8/3/3
f 13/1/15 11/2/16 10/3/13
f 11/3/16 16/10/7 9/2/7
f 12/3/2 3/10/8 13/2/15
f 3/1/8 14/2/17 13/3/15
f 2/1/17 16/2/18 14/3/17
f 38/11/19 41/12/19 43/13/19
f 21/1/20 19/2/6 30/3/20
f 30/1/21 20/2/19 33/3/21
f 25/1/22 44/14/23 16/2/18
f 34/1/24 15/2/18 29/3/25
f 17/15/23 19/16/23 18/17/23
f 33/1/26 17/2/27 26/3/26
f 25/1/22 16/2/18 34/3/24
f 21/1/28 28/2/29 26/3/28
f 23/1/29 27/2/30 28/3/29
f 27/3/31 22/10/32 25/2/22
f 33/1/21 32/2/33 30/3/21
f 35/1/34 31/2/35 32/3/34
f 36/1/36 29/2/25 31/3/35
f 30/1/20 23/2/37 21/3/20
f 32/1/37 24/2/38 23/3/37
f 31/1/35 22/2/32 24/3/39
f 34/1/24 27/2/31 25/3/22
f 27/3/40 35/10/41 28/2/41
f 35/1/41 26/2/26 28/3/41
f 26/1/28 18/2/42 21/3/28
f 4/1/1 1/10/9 12/2/2
f 40/7/6 16/9/7 44/18/6
f 22/1/32 47/19/23 44/20/23
f 4/1/1 6/10/10 3/2/8
f 6/1/10 7/10/11 2/2/11
f 2/3/11 7/1/11 5/10/12
f 4/3/1 8/1/3 10/10/13
f 10/1/13 11/10/14 7/2/14
f 11/1/14 9/10/5 5/2/5
f 12/1/2 13/10/15 10/2/13
f 13/1/15 14/10/16 11/2/16
f 11/3/16 14/1/16 16/10/7
f 12/3/2 1/1/9 3/10/8
f 3/1/8 2/10/17 14/2/17
f 2/1/17 15/10/18 16/2/18
f 29/1/25 15/10/18 47/21/23
f 21/1/20 18/10/6 19/2/6
f 30/1/21 19/10/19 20/2/19
f 22/1/32 44/22/23 25/3/22
f 34/1/24 16/10/18 15/2/18
f 17/15/23 20/23/23 19/16/23
f 33/1/26 20/10/27 17/2/27
f 29/1/25 47/24/23 22/3/32
f 47/25/27 15/26/12 5/27/12
f 21/1/28 23/10/29 28/2/29
f 23/1/29 24/10/30 27/2/30
f 27/3/31 24/1/39 22/10/32
f 33/1/21 35/10/33 32/2/33
f 35/1/34 36/10/36 31/2/35
f 36/1/36 34/10/24 29/2/25
f 30/1/20 32/10/37 23/2/37
f 32/1/37 31/10/38 24/2/38
f 31/1/35 29/10/25 22/2/32
f 34/1/24 36/10/36 27/2/31
f 27/3/40 36/1/40 35/10/41
f 35/1/41 33/10/26 26/2/26
f 26/1/28 17/10/42 18/2/42
f 37/4/4 9/6/5 40/28/4
f 47/29/27 5/27/12 37/30/27
f 46/31/43 39/32/44 38/33/45
f 48/34/46 37/30/47 39/35/44
f 40/28/48 39/36/44 37/4/47
f 42/37/49 38/11/45 39/38/44
f 47/19/50 45/39/51 44/20/52
f 48/40/46 43/41/53 45/39/51
f 44/18/52 42/42/49 40/7/48
f 45/43/51 41/12/54 42/44/49
f 38/33/19 43/41/19 46/31/19
f 46/31/43 48/45/46 39/32/44
f 48/34/46 47/29/50 37/30/47
f 40/28/48 42/46/49 39/36/44
f 42/37/49 41/12/54 38/11/45
f 47/19/50 48/40/46 45/39/51
f 48/40/46 46/31/43 43/41/53
f 44/18/52 45/47/51 42/42/49
f 45/43/51 43/13/53 41/12/54
