# Blender 4.2.3 LTS
# www.blender.org
mtllib Sign.mtl
o Cube
v -1.000000 0.418028 0.045458
v -1.000000 1.797821 0.045458
v -1.000000 0.418028 -0.140469
v -1.000000 1.797821 -0.140469
v 1.000000 0.418028 0.045458
v 1.000000 1.797821 0.045458
v 1.000000 0.418028 -0.140469
v 1.000000 1.797821 -0.140469
v -0.101117 0.418028 0.045458
v -0.101117 0.418028 -0.140469
v 0.110105 0.418028 -0.140469
v 0.110105 0.418028 0.045458
v 0.110105 -0.133116 -0.140469
v -0.101117 -0.133116 -0.140469
v -0.101117 -0.133116 0.045458
v 0.110105 -0.133116 0.045458
v 1.000000 0.418028 0.045458
v 1.000000 1.797821 0.045458
v 1.000000 0.418028 -0.140469
v 1.000000 1.797821 -0.140469
vn -1.0000 -0.0000 -0.0000
vn -0.0000 -0.0000 -1.0000
vn -0.0000 -0.0000 1.0000
vn -0.0000 -1.0000 -0.0000
vn -0.0000 1.0000 -0.0000
vn 1.0000 -0.0000 -0.0000
vt 0.134750 1.000000
vt 0.000000 0.000000
vt 0.134751 0.000000
vt 0.998409 0.999472
vt -0.001591 0.015048
vt 0.443356 0.015048
vt 1.251008 1.023129
vt -0.232169 0.050242
vt 0.434433 0.050242
vt 0.000000 -0.000000
vt 0.206843 1.000000
vt 0.000000 1.000000
vt 0.092964 1.000000
vt 0.000000 1.000000
vt -0.108180 0.500000
vt -0.355899 0.781420
vt -0.355899 0.500000
vt 0.492399 0.516421
vt 0.080512 0.358569
vt 0.492400 0.358569
vt 0.000000 1.000000
vt 0.208932 -0.000000
vt 0.208932 1.000000
vt 0.080512 0.358569
vt 0.492400 0.358569
vt 0.492399 0.516421
vt 0.080512 0.377472
vt 0.492400 0.377472
vt 0.492400 0.516421
vt 0.134751 1.000000
vt 0.134750 0.000000
vt 0.000000 1.000000
vt 0.548967 0.015048
vt 0.998409 0.015048
vt -0.001591 0.999472
vt 0.591072 0.050242
vt 1.251008 0.050242
vt -0.232169 1.023129
vt 0.206843 -0.000000
vt 0.092964 0.000000
vt -0.108180 0.781420
vt 0.080512 0.516421
vt 0.080512 0.516421
vt 0.000000 1.000000
s 0
usemtl Wood
f 2/1/1 3/2/1 1/3/1
f 6/7/3 1/8/3 9/9/3
f 10/10/4 1/11/4 3/12/4
f 4/10/5 6/13/5 8/14/5
f 14/15/4 16/16/4 15/17/4
f 11/18/2 14/19/2 10/20/2
f 11/21/4 5/22/4 12/23/4
f 9/18/3 16/24/3 12/25/3
f 10/26/1 15/27/1 9/28/1
f 12/29/6 13/27/6 11/28/6
f 20/30/6 17/2/6 19/31/6
f 2/1/1 4/32/1 3/2/1
f 12/36/3 5/37/3 6/7/3
f 6/7/3 2/38/3 1/8/3
f 9/9/3 12/36/3 6/7/3
f 10/10/4 9/39/4 1/11/4
f 4/10/5 2/40/5 6/13/5
f 14/15/4 13/41/4 16/16/4
f 11/18/2 13/42/2 14/19/2
f 11/21/4 7/10/4 5/22/4
f 9/18/3 15/42/3 16/24/3
f 10/26/1 14/43/1 15/27/1
f 12/29/6 16/42/6 13/27/6
f 20/30/6 18/44/6 17/2/6
usemtl Front
f 4/4/2 7/5/2 11/6/2
f 10/33/2 3/34/2 4/4/2
f 4/4/2 8/35/2 7/5/2
f 11/6/2 10/33/2 4/4/2
