# Blender 4.2.3 LTS
# www.blender.org
o Cube
v -0.551876 -0.131692 1.000000
v -1.000000 -0.131692 0.551876
v -0.723366 -0.131692 0.965889
v -0.868748 -0.131692 0.868748
v -0.965889 -0.131692 0.723366
v -1.000000 -0.131692 -0.551876
v -0.551876 -0.131692 -1.000000
v -0.965889 -0.131692 -0.723366
v -0.868748 -0.131692 -0.868748
v -0.723366 -0.131692 -0.965889
v 1.000000 -0.131692 0.551876
v 0.551876 -0.131692 1.000000
v 0.965889 -0.131692 0.723366
v 0.868748 -0.131692 0.868748
v 0.723366 -0.131692 0.965889
v 0.551876 -0.131692 -1.000000
v 1.000000 -0.131692 -0.551876
v 0.723366 -0.131692 -0.965889
v 0.868748 -0.131692 -0.868748
v 0.965889 -0.131692 -0.723366
v -0.913036 0.131692 0.543311
v -1.000000 0.044728 0.551876
v -0.946316 0.125072 0.546589
v -0.974529 0.106221 0.549368
v -0.993380 0.078007 0.551224
v -0.543311 0.131692 0.913036
v -0.551876 0.044728 1.000000
v -0.546589 0.125072 0.946316
v -0.549368 0.106221 0.974529
v -0.551224 0.078007 0.993380
v -0.883970 0.131692 0.689434
v -0.965889 0.044728 0.723366
v -0.915319 0.125072 0.702419
v -0.941895 0.106221 0.713428
v -0.959653 0.078007 0.720783
v -0.806050 0.131692 0.806050
v -0.868748 0.044728 0.868748
v -0.830043 0.125072 0.830043
v -0.850384 0.106221 0.850384
v -0.863975 0.078007 0.863975
v -0.689434 0.131692 0.883970
v -0.723366 0.044728 0.965889
v -0.702419 0.125072 0.915319
v -0.713428 0.106221 0.941895
v -0.720783 0.078007 0.959653
v -0.543311 0.131692 -0.913036
v -0.551876 0.044728 -1.000000
v -0.546589 0.125072 -0.946316
v -0.549368 0.106221 -0.974529
v -0.551224 0.078007 -0.993380
v -0.913036 0.131692 -0.543311
v -1.000000 0.044728 -0.551876
v -0.946316 0.125072 -0.546589
v -0.974529 0.106221 -0.549368
v -0.993380 0.078007 -0.551224
v -0.689434 0.131692 -0.883970
v -0.723366 0.044728 -0.965889
v -0.702419 0.125072 -0.915319
v -0.713428 0.106221 -0.941895
v -0.720783 0.078007 -0.959653
v -0.806050 0.131692 -0.806050
v -0.868748 0.044728 -0.868748
v -0.830043 0.125072 -0.830043
v -0.850384 0.106221 -0.850384
v -0.863975 0.078007 -0.863975
v -0.883970 0.131692 -0.689434
v -0.965889 0.044728 -0.723366
v -0.915319 0.125072 -0.702419
v -0.941895 0.106221 -0.713428
v -0.959653 0.078007 -0.720783
v 0.543311 0.131692 0.913036
v 0.551876 0.044728 1.000000
v 0.546589 0.125072 0.946316
v 0.549368 0.106221 0.974529
v 0.551224 0.078007 0.993380
v 0.913036 0.131692 0.543311
v 1.000000 0.044728 0.551876
v 0.946316 0.125072 0.546589
v 0.974529 0.106221 0.549368
v 0.993380 0.078007 0.551224
v 0.689434 0.131692 0.883970
v 0.723366 0.044728 0.965889
v 0.702419 0.125072 0.915319
v 0.713428 0.106221 0.941895
v 0.720783 0.078007 0.959653
v 0.806050 0.131692 0.806050
v 0.868748 0.044728 0.868748
v 0.830043 0.125072 0.830043
v 0.850384 0.106221 0.850384
v 0.863975 0.078007 0.863975
v 0.883970 0.131692 0.689434
v 0.965889 0.044728 0.723366
v 0.915319 0.125072 0.702419
v 0.941895 0.106221 0.713428
v 0.959653 0.078007 0.720783
v 0.913036 0.131692 -0.543311
v 1.000000 0.044728 -0.551876
v 0.946316 0.125072 -0.546589
v 0.974529 0.106221 -0.549368
v 0.993380 0.078007 -0.551224
v 0.543311 0.131692 -0.913036
v 0.551876 0.044728 -1.000000
v 0.546589 0.125072 -0.946316
v 0.549368 0.106221 -0.974529
v 0.551224 0.078007 -0.993380
v 0.883970 0.131692 -0.689434
v 0.965889 0.044728 -0.723366
v 0.915319 0.125072 -0.702419
v 0.941895 0.106221 -0.713428
v 0.959653 0.078007 -0.720783
v 0.806050 0.131692 -0.806050
v 0.868748 0.044728 -0.868748
v 0.830043 0.125072 -0.830043
v 0.850384 0.106221 -0.850384
v 0.863975 0.078007 -0.863975
v 0.689434 0.131692 -0.883970
v 0.723366 0.044728 -0.965889
v 0.702419 0.125072 -0.915319
v 0.713428 0.106221 -0.941895
v 0.720783 0.078007 -0.959653
vn -0.7037 0.0987 0.7037
vn -0.9239 -0.0000 0.3827
vn -0.7071 -0.0000 0.7071
vn 0.3827 -0.0000 0.9239
vn 0.7037 0.0987 0.7037
vn 0.3808 0.0987 0.9194
vn -0.0975 0.0979 0.9904
vn -0.3827 -0.0000 0.9239
vn -0.0980 -0.0000 0.9952
vn -0.9239 -0.0000 -0.3827
vn -0.9904 0.0979 -0.0975
vn -0.9194 0.0987 -0.3808
vn 0.0975 0.0979 0.9904
vn 0.0980 -0.0000 0.9952
vn -0.0980 -0.0000 -0.9952
vn -0.3808 0.0987 -0.9194
vn -0.0975 0.0979 -0.9904
vn -0.3808 0.0987 0.9194
vn -0.9904 0.0979 0.0975
vn -0.9952 -0.0000 -0.0980
vn -0.9952 -0.0000 0.0980
vn 0.0980 -0.0000 -0.9952
vn -0.7071 -0.0000 -0.7071
vn -0.7037 0.0987 -0.7037
vn -0.3827 -0.0000 -0.9239
vn 0.3827 -0.0000 -0.9239
vn 0.0975 0.0979 -0.9904
vn 0.3808 0.0987 -0.9194
vn 0.7071 -0.0000 -0.7071
vn 0.7037 0.0987 -0.7037
vn 0.9239 -0.0000 -0.3827
vn 0.9194 0.0987 -0.3808
vn 0.9239 -0.0000 0.3827
vn 0.9904 0.0979 0.0975
vn 0.9194 0.0987 0.3808
vn 0.7071 -0.0000 0.7071
vn 0.9952 -0.0000 -0.0980
vn 0.9904 0.0979 -0.0975
vn 0.9952 -0.0000 0.0980
vn -0.0764 0.9941 -0.0764
vn 0.0102 0.9946 0.1031
vn 0.1031 0.9946 0.0102
vn -0.0414 0.9941 0.0998
vn -0.0384 0.9202 0.3896
vn -0.0102 0.9946 0.1031
vn -0.1520 0.9178 0.3669
vn -0.0697 0.7026 0.7081
vn -0.2727 0.7015 0.6585
vn -0.0907 0.3799 0.9206
vn -0.3540 0.3800 0.8546
vn -0.2808 0.9178 0.2808
vn -0.6541 0.3800 0.6541
vn -0.0998 0.9941 0.0414
vn -0.0764 0.9941 0.0764
vn -0.6585 0.7015 0.2727
vn -0.5040 0.7015 0.5040
vn -0.9194 0.0987 0.3808
vn -0.3896 0.9202 0.0384
vn -0.3669 0.9178 0.1520
vn -0.7081 0.7026 0.0697
vn -0.9206 0.3799 0.0907
vn -0.8546 0.3800 0.3540
vn -0.0414 0.9941 -0.0998
vn -0.0384 0.9202 -0.3896
vn -0.1520 0.9178 -0.3669
vn -0.0697 0.7026 -0.7081
vn -0.2727 0.7015 -0.6585
vn -0.0907 0.3799 -0.9206
vn -0.3540 0.3800 -0.8546
vn -0.2808 0.9178 -0.2808
vn -0.5040 0.7015 -0.5040
vn -0.6541 0.3800 -0.6541
vn -0.0998 0.9941 -0.0414
vn -0.3669 0.9178 -0.1520
vn -0.6585 0.7015 -0.2727
vn -0.8546 0.3800 -0.3540
vn -0.3896 0.9202 -0.0384
vn -0.1031 0.9946 -0.0102
vn -0.7081 0.7026 -0.0697
vn -0.9206 0.3799 -0.0907
vn 0.0998 0.9941 -0.0414
vn 0.3896 0.9202 -0.0384
vn 0.3669 0.9178 -0.1520
vn 0.7081 0.7026 -0.0697
vn 0.6585 0.7015 -0.2727
vn 0.9206 0.3799 -0.0907
vn 0.8546 0.3800 -0.3540
vn 0.2808 0.9178 -0.2808
vn 0.0764 0.9941 -0.0764
vn 0.5040 0.7015 -0.5040
vn 0.6541 0.3800 -0.6541
vn 0.0414 0.9941 -0.0998
vn 0.1520 0.9178 -0.3669
vn 0.2727 0.7015 -0.6585
vn 0.3540 0.3800 -0.8546
vn 0.0384 0.9202 -0.3896
vn 0.0102 0.9946 -0.1031
vn 0.0697 0.7026 -0.7081
vn 0.0907 0.3799 -0.9206
vn 0.0414 0.9941 0.0998
vn 0.0384 0.9202 0.3896
vn 0.1520 0.9178 0.3669
vn 0.0697 0.7026 0.7081
vn 0.2727 0.7015 0.6585
vn 0.0907 0.3799 0.9206
vn 0.3540 0.3800 0.8546
vn 0.2808 0.9178 0.2808
vn 0.0764 0.9941 0.0764
vn 0.5040 0.7015 0.5040
vn 0.6541 0.3800 0.6541
vn 0.0998 0.9941 0.0414
vn 0.3669 0.9178 0.1520
vn 0.6585 0.7015 0.2727
vn 0.8546 0.3800 0.3540
vn 0.3896 0.9202 0.0384
vn 0.7081 0.7026 0.0697
vn 0.9206 0.3799 0.0907
vn -0.1031 0.9946 0.0102
vn 0.1031 0.9946 -0.0102
vn -0.0102 0.9946 -0.1031
vt 0.033985 0.489452
vt 0.028515 0.494923
vt 0.028515 0.489452
vt 0.224062 0.000000
vt 0.138317 0.017056
vt 0.017056 0.861683
vt 0.000000 0.775938
vt 0.775938 0.000000
vt 0.224062 1.000000
vt 0.138317 0.982944
vt 0.000000 0.224062
vt 0.775938 1.000000
vt 0.861683 0.017056
vt 0.861683 0.982944
vt 0.982944 0.138317
vt 1.000000 0.224062
vt 1.000000 0.775938
vt 0.982944 0.861683
vt 0.489383 0.510617
vt 0.507156 0.487974
vt 0.512026 0.492844
vt 0.155283 0.058015
vt 0.226706 0.026842
vt 0.228344 0.043482
vt 0.148790 0.042340
vt 0.225316 0.012736
vt 0.143286 0.029052
vt 0.224388 0.003310
vt 0.139608 0.020174
vt 0.033985 0.494923
vt 0.058015 0.155283
vt 0.026842 0.226705
vt 0.042340 0.148790
vt 0.012736 0.225316
vt 0.029052 0.143286
vt 0.003310 0.224388
vt 0.020174 0.139608
vt 0.017056 0.138317
vt 0.155283 0.941985
vt 0.226706 0.973158
vt 0.148790 0.957660
vt 0.225316 0.987264
vt 0.143286 0.970947
vt 0.224388 0.996690
vt 0.139608 0.979826
vt 0.058015 0.844717
vt 0.026842 0.773295
vt 0.043482 0.771655
vt 0.042340 0.851210
vt 0.012736 0.774684
vt 0.029052 0.856714
vt 0.003310 0.775612
vt 0.020174 0.860391
vt 0.941985 0.844717
vt 0.973158 0.773295
vt 0.957660 0.851210
vt 0.987264 0.774684
vt 0.970947 0.856714
vt 0.996690 0.775612
vt 0.979827 0.860391
vt 0.844717 0.941985
vt 0.773294 0.973158
vt 0.771655 0.956518
vt 0.851210 0.957660
vt 0.774684 0.987264
vt 0.856714 0.970947
vt 0.775612 0.996690
vt 0.860391 0.979826
vt 0.844717 0.058015
vt 0.773294 0.026842
vt 0.851210 0.042340
vt 0.774684 0.012736
vt 0.856714 0.029052
vt 0.775612 0.003310
vt 0.860391 0.020174
vt 0.941985 0.155283
vt 0.973158 0.226705
vt 0.956518 0.228344
vt 0.957660 0.148790
vt 0.987264 0.225316
vt 0.970947 0.143286
vt 0.996690 0.224388
vt 0.979827 0.139608
vt 0.043482 0.228344
vt 0.771655 0.043482
vt 0.512026 0.507156
vt 0.511643 0.509081
vt 0.510617 0.510617
vt 0.509081 0.511643
vt 0.507156 0.512026
vt 0.492844 0.512026
vt 0.490919 0.511643
vt 0.488357 0.509081
vt 0.487974 0.507156
vt 0.487974 0.492844
vt 0.488357 0.490919
vt 0.489383 0.489383
vt 0.490919 0.488357
vt 0.492844 0.487974
vt 0.509081 0.488357
vt 0.510617 0.489383
vt 0.511643 0.490919
vt 0.228344 0.956518
vt 0.956518 0.771655
s 1
f 37/1/1 5/2/2 4/3/3
f 15/1/4 87/2/5 82/3/6
f 27/4/7 3/5/8 1/4/9
f 8/6/10 52/7/11 67/6/12
f 72/8/13 1/4/9 12/8/14
f 7/9/15 57/10/16 47/9/17
f 42/1/18 4/2/3 3/3/8
f 22/11/19 6/7/20 2/11/21
f 47/9/17 16/12/22 7/9/15
f 9/1/23 67/2/12 62/3/24
f 12/8/14 82/13/6 72/8/13
f 10/1/25 62/2/24 57/3/16
f 18/14/26 102/12/27 117/14/28
f 19/1/29 117/2/28 112/3/30
f 20/1/31 112/2/30 107/3/32
f 13/15/33 77/16/34 92/15/35
f 14/1/36 92/2/35 87/3/5
f 17/17/37 107/18/32 97/17/38
f 97/17/38 11/16/39 17/17/37
f 61/19/40 71/20/41 76/21/42
f 41/22/43 28/23/44 26/24/45
f 43/25/46 29/26/47 28/23/44
f 44/27/48 30/28/49 29/26/47
f 45/29/50 27/4/7 30/28/49
f 41/3/43 38/30/51 43/2/46
f 38/1/51 44/2/48 43/3/46
f 44/3/48 40/30/52 45/2/50
f 40/1/52 42/2/18 45/3/50
f 31/1/53 38/2/51 36/3/54
f 38/3/51 34/30/55 39/2/56
f 34/1/55 40/2/52 39/3/56
f 40/3/52 32/30/57 37/2/1
f 31/31/53 23/32/58 33/33/59
f 33/33/59 24/34/60 34/35/55
f 34/35/55 25/36/61 35/37/62
f 35/37/62 22/11/19 32/38/57
f 56/39/63 48/40/64 58/41/65
f 58/41/65 49/42/66 59/43/67
f 59/43/67 50/44/68 60/45/69
f 60/45/69 47/9/17 57/10/16
f 56/1/63 63/2/70 61/3/40
f 63/3/70 59/30/67 64/2/71
f 59/1/67 65/2/72 64/3/71
f 65/3/72 57/30/16 62/2/24
f 66/3/73 63/30/70 68/2/74
f 63/1/70 69/2/75 68/3/74
f 69/3/75 65/30/72 70/2/76
f 65/1/72 67/2/12 70/3/76
f 66/46/73 53/47/77 51/48/78
f 68/49/74 54/50/79 53/47/77
f 69/51/75 55/52/80 54/50/79
f 70/53/76 52/7/11 55/52/80
f 106/54/81 98/55/82 108/56/83
f 108/56/83 99/57/84 109/58/85
f 109/58/85 100/59/86 110/60/87
f 110/60/87 97/17/38 107/18/32
f 106/1/81 113/2/88 111/3/89
f 113/3/88 109/30/85 114/2/90
f 109/1/85 115/2/91 114/3/90
f 115/3/91 107/30/32 112/2/30
f 116/3/92 113/30/88 118/2/93
f 113/1/88 119/2/94 118/3/93
f 119/3/94 115/30/91 120/2/95
f 115/1/91 117/2/28 120/3/95
f 116/61/92 103/62/96 101/63/97
f 118/64/93 104/65/98 103/62/96
f 119/66/94 105/67/99 104/65/98
f 120/68/95 102/12/27 105/67/99
f 81/69/100 73/70/101 83/71/102
f 83/71/102 74/72/103 84/73/104
f 84/73/104 75/74/105 85/75/106
f 85/75/106 72/8/13 82/13/6
f 81/1/100 88/2/107 86/3/108
f 88/3/107 84/30/104 89/2/109
f 84/1/104 90/2/110 89/3/109
f 90/3/110 82/30/6 87/2/5
f 91/3/111 88/30/107 93/2/112
f 88/1/107 94/2/113 93/3/112
f 94/3/113 90/30/110 95/2/114
f 90/1/110 92/2/35 95/3/114
f 91/76/111 78/77/115 76/78/42
f 93/79/112 79/80/116 78/77/115
f 94/81/113 80/82/117 79/80/116
f 95/83/114 77/16/34 80/82/117
f 21/84/118 53/47/77 23/32/58
f 53/47/77 24/34/60 23/32/58
f 54/50/79 25/36/61 24/34/60
f 55/52/80 22/11/19 25/36/61
f 71/85/41 28/23/44 73/70/101
f 28/23/44 74/72/103 73/70/101
f 29/26/47 75/74/105 74/72/103
f 30/28/49 72/8/13 75/74/105
f 77/16/34 100/59/86 80/82/117
f 100/59/86 79/80/116 80/82/117
f 99/57/84 78/77/115 79/80/116
f 98/55/82 76/78/42 78/77/115
f 102/12/27 50/44/68 105/67/99
f 50/44/68 104/65/98 105/67/99
f 49/42/66 103/62/96 104/65/98
f 48/40/64 101/63/97 103/62/96
f 32/38/57 2/11/21 5/38/2
f 37/1/1 32/30/57 5/2/2
f 15/1/4 14/30/36 87/2/5
f 27/4/7 42/5/18 3/5/8
f 8/6/10 6/7/20 52/7/11
f 72/8/13 27/4/7 1/4/9
f 7/9/15 10/10/25 57/10/16
f 42/1/18 37/30/1 4/2/3
f 22/11/19 52/7/11 6/7/20
f 47/9/17 102/12/27 16/12/22
f 9/1/23 8/30/10 67/2/12
f 12/8/14 15/13/4 82/13/6
f 10/1/25 9/30/23 62/2/24
f 18/14/26 16/12/22 102/12/27
f 19/1/29 18/30/26 117/2/28
f 20/1/31 19/30/29 112/2/30
f 13/15/33 11/16/39 77/16/34
f 14/1/36 13/30/33 92/2/35
f 17/17/37 20/18/31 107/18/32
f 97/17/38 77/16/34 11/16/39
f 76/21/42 96/86/119 106/87/81
f 106/87/81 111/88/89 116/89/92
f 116/89/92 101/90/97 46/91/120
f 46/91/120 56/92/63 61/19/40
f 61/19/40 66/93/73 51/94/78
f 51/94/78 21/95/118 31/96/53
f 31/96/53 36/97/54 41/98/43
f 41/98/43 26/99/45 71/20/41
f 71/20/41 81/100/100 86/101/108
f 86/101/108 91/102/111 76/21/42
f 76/21/42 106/87/81 116/89/92
f 116/89/92 46/91/120 61/19/40
f 61/19/40 51/94/78 31/96/53
f 31/96/53 41/98/43 71/20/41
f 71/20/41 86/101/108 76/21/42
f 76/21/42 116/89/92 61/19/40
f 61/19/40 31/96/53 71/20/41
f 41/22/43 43/25/46 28/23/44
f 43/25/46 44/27/48 29/26/47
f 44/27/48 45/29/50 30/28/49
f 45/29/50 42/5/18 27/4/7
f 41/3/43 36/1/54 38/30/51
f 38/1/51 39/30/56 44/2/48
f 44/3/48 39/1/56 40/30/52
f 40/1/52 37/30/1 42/2/18
f 31/1/53 33/30/59 38/2/51
f 38/3/51 33/1/59 34/30/55
f 34/1/55 35/30/62 40/2/52
f 40/3/52 35/1/62 32/30/57
f 31/31/53 21/84/118 23/32/58
f 33/33/59 23/32/58 24/34/60
f 34/35/55 24/34/60 25/36/61
f 35/37/62 25/36/61 22/11/19
f 56/39/63 46/103/120 48/40/64
f 58/41/65 48/40/64 49/42/66
f 59/43/67 49/42/66 50/44/68
f 60/45/69 50/44/68 47/9/17
f 56/1/63 58/30/65 63/2/70
f 63/3/70 58/1/65 59/30/67
f 59/1/67 60/30/69 65/2/72
f 65/3/72 60/1/69 57/30/16
f 66/3/73 61/1/40 63/30/70
f 63/1/70 64/30/71 69/2/75
f 69/3/75 64/1/71 65/30/72
f 65/1/72 62/30/24 67/2/12
f 66/46/73 68/49/74 53/47/77
f 68/49/74 69/51/75 54/50/79
f 69/51/75 70/53/76 55/52/80
f 70/53/76 67/6/12 52/7/11
f 106/54/81 96/104/119 98/55/82
f 108/56/83 98/55/82 99/57/84
f 109/58/85 99/57/84 100/59/86
f 110/60/87 100/59/86 97/17/38
f 106/1/81 108/30/83 113/2/88
f 113/3/88 108/1/83 109/30/85
f 109/1/85 110/30/87 115/2/91
f 115/3/91 110/1/87 107/30/32
f 116/3/92 111/1/89 113/30/88
f 113/1/88 114/30/90 119/2/94
f 119/3/94 114/1/90 115/30/91
f 115/1/91 112/30/30 117/2/28
f 116/61/92 118/64/93 103/62/96
f 118/64/93 119/66/94 104/65/98
f 119/66/94 120/68/95 105/67/99
f 120/68/95 117/14/28 102/12/27
f 81/69/100 71/85/41 73/70/101
f 83/71/102 73/70/101 74/72/103
f 84/73/104 74/72/103 75/74/105
f 85/75/106 75/74/105 72/8/13
f 81/1/100 83/30/102 88/2/107
f 88/3/107 83/1/102 84/30/104
f 84/1/104 85/30/106 90/2/110
f 90/3/110 85/1/106 82/30/6
f 91/3/111 86/1/108 88/30/107
f 88/1/107 89/30/109 94/2/113
f 94/3/113 89/1/109 90/30/110
f 90/1/110 87/30/5 92/2/35
f 91/76/111 93/79/112 78/77/115
f 93/79/112 94/81/113 79/80/116
f 94/81/113 95/83/114 80/82/117
f 95/83/114 92/15/35 77/16/34
f 21/84/118 51/48/78 53/47/77
f 53/47/77 54/50/79 24/34/60
f 54/50/79 55/52/80 25/36/61
f 55/52/80 52/7/11 22/11/19
f 71/85/41 26/24/45 28/23/44
f 28/23/44 29/26/47 74/72/103
f 29/26/47 30/28/49 75/74/105
f 30/28/49 27/4/7 72/8/13
f 77/16/34 97/17/38 100/59/86
f 100/59/86 99/57/84 79/80/116
f 99/57/84 98/55/82 78/77/115
f 98/55/82 96/104/119 76/78/42
f 102/12/27 47/9/17 50/44/68
f 50/44/68 49/42/66 104/65/98
f 49/42/66 48/40/64 103/62/96
f 48/40/64 46/103/120 101/63/97
f 32/38/57 22/11/19 2/11/21
