# Blender 4.2.3 LTS
# www.blender.org
o Cube.001
v -0.832572 -0.124879 0.832572
v -0.832572 -0.124879 -0.832572
v 0.832572 -0.124879 0.832572
v 0.832572 -0.124879 -0.832572
v -0.832572 -0.124879 -0.416286
v -1.191188 -0.183123 -0.000000
v -0.832572 -0.124879 0.416286
v 0.832572 -0.124879 0.416286
v 1.191188 -0.183123 -0.000000
v 0.832572 -0.124879 -0.416286
v 0.416286 -0.124879 -0.832572
v 0.000000 -0.183123 -1.191188
v -0.416286 -0.124879 -0.832572
v -0.416286 -0.124879 0.832572
v 0.000000 -0.183123 1.191188
v 0.416286 -0.124879 0.832572
v -0.416286 0.145560 -0.416286
v 0.000000 0.145560 -0.416286
v 0.416286 0.145560 -0.416286
v -0.416286 0.145560 -0.000000
v 0.000000 0.145560 -0.000000
v 0.416286 0.145560 -0.000000
v -0.416286 0.145560 0.416286
v 0.000000 0.145560 0.416286
v 0.416286 0.145560 0.416286
v -0.648109 0.145560 0.648109
v -0.832572 -0.020941 0.832572
v -0.718700 0.132886 0.718700
v -0.778544 0.096793 0.778544
v -0.818531 0.042776 0.818531
v -0.648109 0.145560 -0.648109
v -0.832572 -0.020941 -0.832572
v -0.718700 0.132886 -0.718700
v -0.778544 0.096793 -0.778544
v -0.818531 0.042776 -0.818531
v 0.648109 0.145560 0.648109
v 0.832572 -0.020941 0.832572
v 0.718700 0.132886 0.718700
v 0.778544 0.096793 0.778544
v 0.818531 0.042776 0.818531
v 0.648109 0.145560 -0.648109
v 0.832572 -0.020941 -0.832572
v 0.718700 0.132886 -0.718700
v 0.778544 0.096793 -0.778544
v 0.818531 0.042776 -0.818531
v -0.647373 0.145560 0.416286
v -0.832572 -0.020959 0.416286
v -0.718245 0.132884 0.416286
v -0.778329 0.096788 0.416286
v -0.818475 0.042765 0.416286
v -1.003955 0.189730 -0.000000
v -1.191188 0.037267 -0.000000
v -1.075606 0.182439 -0.000000
v -1.136349 0.150904 -0.000000
v -1.176936 0.099926 -0.000000
v -0.832572 -0.020959 -0.416286
v -0.647373 0.145560 -0.416286
v -0.818475 0.042765 -0.416286
v -0.778329 0.096788 -0.416286
v -0.718245 0.132884 -0.416286
v 0.647373 0.145560 -0.416286
v 0.832572 -0.020959 -0.416286
v 0.718245 0.132884 -0.416286
v 0.778329 0.096788 -0.416286
v 0.818475 0.042765 -0.416286
v 1.003955 0.189730 -0.000000
v 1.191188 0.037267 -0.000000
v 1.075606 0.182439 -0.000000
v 1.136349 0.150904 -0.000000
v 1.176936 0.099926 -0.000000
v 0.832572 -0.020959 0.416286
v 0.647373 0.145560 0.416286
v 0.818475 0.042765 0.416286
v 0.778329 0.096788 0.416286
v 0.718245 0.132884 0.416286
v -0.416286 0.145560 -0.647373
v -0.416286 -0.020959 -0.832572
v -0.416286 0.132884 -0.718245
v -0.416286 0.096788 -0.778329
v -0.416286 0.042765 -0.818475
v 0.000000 0.189730 -1.003955
v 0.000000 0.037267 -1.191188
v 0.000000 0.182439 -1.075606
v 0.000000 0.150904 -1.136349
v 0.000000 0.099926 -1.176936
v 0.416286 -0.020959 -0.832572
v 0.416286 0.145560 -0.647373
v 0.416286 0.042765 -0.818475
v 0.416286 0.096788 -0.778329
v 0.416286 0.132884 -0.718245
v 0.416286 0.145560 0.647373
v 0.416286 -0.020959 0.832572
v 0.416286 0.132884 0.718245
v 0.416286 0.096788 0.778329
v 0.416286 0.042765 0.818475
v 0.000000 0.189730 1.003955
v 0.000000 0.037267 1.191188
v 0.000000 0.182439 1.075606
v 0.000000 0.150904 1.136349
v 0.000000 0.099926 1.176936
v -0.416286 -0.020959 0.832572
v -0.416286 0.145560 0.647373
v -0.416286 0.042765 0.818475
v -0.416286 0.096788 0.778329
v -0.416286 0.132884 0.718245
vn -0.0000 -0.0000 -1.0000
vn 0.0001 0.1086 -0.9941
vn 1.0000 -0.0000 -0.0000
vn 0.9941 0.1086 0.0001
vn -0.0000 -0.0000 1.0000
vn -0.0001 0.1086 0.9941
vn -0.0539 0.9976 0.0433
vn -0.0433 0.9976 0.0539
vn -0.0000 1.0000 -0.0000
vn -0.0433 0.9976 -0.0539
vn -0.0539 0.9976 -0.0433
vn -0.9941 0.1086 0.0001
vn -1.0000 -0.0000 -0.0000
vn 0.0539 0.9976 -0.0433
vn -0.0254 0.9997 -0.0000
vn 0.0548 0.9985 -0.0000
vn -0.7489 0.0857 -0.6571
vn -0.7576 -0.0000 -0.6527
vn -0.7576 -0.0000 0.6527
vn -0.7489 0.0857 0.6571
vn 0.0539 0.9976 0.0433
vn -0.6527 -0.0000 -0.7576
vn -0.6571 0.0857 -0.7489
vn 0.0001 0.1086 0.9941
vn 0.0254 0.9997 -0.0000
vn 0.7489 0.0857 0.6571
vn 0.7576 -0.0000 0.6527
vn -0.0000 0.9997 -0.0254
vn 0.7576 -0.0000 -0.6527
vn 0.7489 0.0857 -0.6571
vn -0.0000 0.9997 0.0254
vn -0.0001 0.1086 -0.9941
vn 0.6527 -0.0000 0.7576
vn 0.6571 0.0857 0.7489
vn 0.6571 0.0857 -0.7489
vn 0.6527 -0.0000 -0.7576
vn 0.9941 0.1086 -0.0001
vn -0.6571 0.0857 0.7489
vn -0.6527 -0.0000 0.7576
vn 0.0433 0.9976 -0.0539
vn 0.0667 0.9955 -0.0667
vn 0.0433 0.9976 0.0539
vn -0.0000 0.9985 0.0548
vn 0.0667 0.9955 0.0667
vn -0.0000 0.9985 -0.0548
vn -0.0667 0.9955 -0.0667
vn -0.3104 0.9357 -0.1678
vn -0.2281 0.9465 -0.2281
vn -0.6223 0.7280 -0.2879
vn -0.7318 0.6815 0.0002
vn -0.9097 0.4153 0.0003
vn -0.9322 0.3620 0.0001
vn 0.1678 0.9357 -0.3104
vn 0.2281 0.9465 -0.2281
vn 0.2879 0.7280 -0.6223
vn -0.0002 0.6815 -0.7318
vn -0.0003 0.4153 -0.9097
vn -0.0001 0.3620 -0.9322
vn 0.3104 0.9357 0.1678
vn 0.2281 0.9465 0.2281
vn 0.6223 0.7280 0.2879
vn 0.7318 0.6815 -0.0002
vn 0.9097 0.4153 -0.0003
vn 0.9322 0.3620 -0.0001
vn -0.0667 0.9955 0.0667
vn -0.1678 0.9357 0.3104
vn -0.2281 0.9465 0.2281
vn -0.2879 0.7280 0.6223
vn 0.0002 0.6815 0.7318
vn 0.0003 0.4153 0.9097
vn 0.0001 0.3620 0.9322
vn -0.3104 0.9357 0.1678
vn -0.6223 0.7280 0.2879
vn -0.7318 0.6815 -0.0002
vn -0.9097 0.4153 -0.0003
vn -0.9322 0.3620 -0.0001
vn -0.9941 0.1086 -0.0001
vn -0.9949 0.1004 -0.0000
vn -0.0548 0.9985 -0.0000
vn -0.3560 0.9345 -0.0000
vn -0.5598 0.6079 0.5631
vn -0.6904 0.3392 0.6389
vn -0.6972 0.3149 0.6440
vn -0.7498 0.0802 0.6568
vn -0.5598 0.6079 -0.5631
vn -0.6904 0.3392 -0.6389
vn -0.6972 0.3149 -0.6440
vn -0.7498 0.0802 -0.6568
vn 0.3104 0.9357 -0.1678
vn 0.6223 0.7280 -0.2879
vn 0.7318 0.6815 0.0002
vn 0.9097 0.4153 0.0003
vn 0.9322 0.3620 0.0001
vn 0.9949 0.1004 -0.0000
vn 0.3560 0.9345 -0.0000
vn 0.5598 0.6079 -0.5631
vn 0.6904 0.3392 -0.6389
vn 0.6972 0.3149 -0.6440
vn 0.7498 0.0802 -0.6568
vn 0.5598 0.6079 0.5631
vn 0.6904 0.3392 0.6389
vn 0.6972 0.3149 0.6440
vn 0.7498 0.0802 0.6568
vn -0.1678 0.9357 -0.3104
vn -0.2879 0.7280 -0.6223
vn 0.0002 0.6815 -0.7318
vn 0.0003 0.4153 -0.9097
vn 0.0001 0.3620 -0.9322
vn -0.0000 0.1004 -0.9949
vn -0.0000 0.9345 -0.3560
vn -0.5631 0.6079 -0.5598
vn -0.6389 0.3392 -0.6904
vn -0.6440 0.3149 -0.6972
vn -0.6568 0.0802 -0.7498
vn 0.5631 0.6079 -0.5598
vn 0.6389 0.3392 -0.6904
vn 0.6440 0.3149 -0.6972
vn 0.6568 0.0802 -0.7498
vn 0.1678 0.9357 0.3104
vn 0.2879 0.7280 0.6223
vn -0.0002 0.6815 0.7318
vn -0.0003 0.4153 0.9097
vn -0.0001 0.3620 0.9322
vn -0.0000 0.1004 0.9949
vn -0.0000 0.9345 0.3560
vn 0.5631 0.6079 0.5598
vn 0.6389 0.3392 0.6904
vn 0.6440 0.3149 0.6972
vn 0.6568 0.0802 0.7498
vn -0.5631 0.6079 0.5598
vn -0.6389 0.3392 0.6904
vn -0.6440 0.3149 0.6972
vn -0.6568 0.0802 0.7498
vt 0.134581 0.521744
vt 0.196086 0.583249
vt 0.134581 0.583249
vt 0.561477 0.438523
vt 0.438523 0.561477
vt 0.438523 0.438523
vt 0.561477 0.561477
vt 0.196086 0.521744
s 1
f 2/1/1 77/2/2 13/3/1
f 4/1/3 62/2/4 10/3/3
f 3/1/5 92/2/6 16/3/5
f 46/4/7 102/5/8 23/6/9
f 76/6/10 57/7/11 17/5/9
f 56/8/12 2/3/13 5/1/13
f 61/6/14 22/7/15 66/5/16
f 52/8/17 5/3/18 6/1/18
f 7/1/19 52/2/20 6/3/19
f 22/4/15 72/5/21 66/6/16
f 13/1/22 82/2/23 12/3/22
f 101/8/24 1/3/5 14/1/5
f 20/6/25 46/7/7 23/5/9
f 57/4/11 20/5/25 17/6/9
f 67/8/26 8/3/27 9/1/27
f 21/4/9 25/5/9 22/6/15
f 20/4/25 24/5/28 21/6/9
f 10/1/29 67/2/30 9/3/29
f 18/4/31 22/5/15 19/6/9
f 17/4/9 21/5/9 18/6/31
f 86/8/32 4/3/1 11/1/1
f 16/1/33 97/2/34 15/3/33
f 82/8/35 11/3/36 12/1/36
f 71/8/37 3/3/3 8/1/3
f 97/8/38 14/3/39 15/1/39
f 87/4/40 61/5/14 41/6/41
f 24/4/28 91/5/42 25/6/9
f 24/6/28 102/7/8 96/5/43
f 72/6/21 91/7/42 36/5/44
f 76/4/10 18/5/31 81/6/45
f 87/6/40 18/7/31 19/5/9
f 31/8/46 60/3/47 57/1/11
f 33/8/48 59/3/49 60/1/47
f 34/8/50 58/3/51 59/1/49
f 35/8/52 56/3/12 58/1/51
f 41/8/41 90/3/53 87/1/40
f 43/8/54 89/3/55 90/1/53
f 44/8/56 88/3/57 89/1/55
f 45/8/58 86/3/32 88/1/57
f 36/8/44 75/3/59 72/1/21
f 38/8/60 74/3/61 75/1/59
f 39/8/62 73/3/63 74/1/61
f 40/8/64 71/3/37 73/1/63
f 26/8/65 105/3/66 102/1/8
f 28/8/67 104/3/68 105/1/66
f 29/8/69 103/3/70 104/1/68
f 30/8/71 101/3/24 103/1/70
f 26/1/65 48/2/72 28/3/67
f 28/1/67 49/2/73 29/3/74
f 29/1/74 50/2/75 30/3/76
f 30/1/76 47/2/77 27/3/78
f 51/8/79 48/3/72 46/1/7
f 53/8/80 49/3/73 48/1/72
f 54/8/81 50/3/82 49/1/73
f 55/8/83 47/3/84 50/1/82
f 51/1/79 60/2/47 53/3/80
f 53/1/80 59/2/49 54/3/85
f 54/1/85 58/2/86 55/3/87
f 55/1/87 56/2/88 52/3/17
f 41/1/41 63/2/89 43/3/54
f 43/1/54 64/2/90 44/3/91
f 44/1/91 65/2/92 45/3/93
f 45/1/93 62/2/4 42/3/94
f 66/8/16 63/3/89 61/1/14
f 68/8/95 64/3/90 63/1/89
f 69/8/96 65/3/97 64/1/90
f 70/8/98 62/3/99 65/1/97
f 66/1/16 75/2/59 68/3/95
f 68/1/95 74/2/61 69/3/100
f 69/1/100 73/2/101 70/3/102
f 70/1/102 71/2/103 67/3/26
f 31/1/46 78/2/104 33/3/48
f 33/1/48 79/2/105 34/3/106
f 34/1/106 80/2/107 35/3/108
f 35/1/108 77/2/2 32/3/109
f 81/8/45 78/3/104 76/1/10
f 83/8/110 79/3/105 78/1/104
f 84/8/111 80/3/112 79/1/105
f 85/8/113 77/3/114 80/1/112
f 81/1/45 90/2/53 83/3/110
f 83/1/110 89/2/55 84/3/115
f 84/1/115 88/2/116 85/3/117
f 85/1/117 86/2/118 82/3/35
f 36/1/44 93/2/119 38/3/60
f 38/1/60 94/2/120 39/3/121
f 39/1/121 95/2/122 40/3/123
f 40/1/123 92/2/6 37/3/124
f 96/8/43 93/3/119 91/1/42
f 98/8/125 94/3/120 93/1/119
f 99/8/126 95/3/127 94/1/120
f 100/8/128 92/3/129 95/1/127
f 96/1/43 105/2/66 98/3/125
f 98/1/125 104/2/68 99/3/130
f 99/1/130 103/2/131 100/3/132
f 100/1/132 101/2/133 97/3/38
f 1/1/13 47/2/77 7/3/13
f 2/1/1 32/8/109 77/2/2
f 4/1/3 42/8/94 62/2/4
f 3/1/5 37/8/124 92/2/6
f 46/4/7 26/7/65 102/5/8
f 76/6/10 31/4/46 57/7/11
f 56/8/12 32/2/78 2/3/13
f 61/6/14 19/4/9 22/7/15
f 52/8/17 56/2/88 5/3/18
f 7/1/19 47/8/84 52/2/20
f 22/4/15 25/7/9 72/5/21
f 13/1/22 77/8/114 82/2/23
f 101/8/24 27/2/124 1/3/5
f 20/6/25 51/4/79 46/7/7
f 57/4/11 51/7/79 20/5/25
f 67/8/26 71/2/103 8/3/27
f 21/4/9 24/7/28 25/5/9
f 20/4/25 23/7/9 24/5/28
f 10/1/29 62/8/99 67/2/30
f 18/4/31 21/7/9 22/5/15
f 17/4/9 20/7/25 21/5/9
f 86/8/32 42/2/109 4/3/1
f 16/1/33 92/8/129 97/2/34
f 82/8/35 86/2/118 11/3/36
f 71/8/37 37/2/94 3/3/3
f 97/8/38 101/2/133 14/3/39
f 87/4/40 19/7/9 61/5/14
f 24/4/28 96/7/43 91/5/42
f 24/6/28 23/4/9 102/7/8
f 72/6/21 25/4/9 91/7/42
f 76/4/10 17/7/9 18/5/31
f 87/6/40 81/4/45 18/7/31
f 31/8/46 33/2/48 60/3/47
f 33/8/48 34/2/50 59/3/49
f 34/8/50 35/2/52 58/3/51
f 35/8/52 32/2/78 56/3/12
f 41/8/41 43/2/54 90/3/53
f 43/8/54 44/2/56 89/3/55
f 44/8/56 45/2/58 88/3/57
f 45/8/58 42/2/109 86/3/32
f 36/8/44 38/2/60 75/3/59
f 38/8/60 39/2/62 74/3/61
f 39/8/62 40/2/64 73/3/63
f 40/8/64 37/2/94 71/3/37
f 26/8/65 28/2/67 105/3/66
f 28/8/67 29/2/69 104/3/68
f 29/8/69 30/2/71 103/3/70
f 30/8/71 27/2/124 101/3/24
f 26/1/65 46/8/7 48/2/72
f 28/1/67 48/8/72 49/2/73
f 29/1/74 49/8/73 50/2/75
f 30/1/76 50/8/75 47/2/77
f 51/8/79 53/2/80 48/3/72
f 53/8/80 54/2/81 49/3/73
f 54/8/81 55/2/83 50/3/82
f 55/8/83 52/2/20 47/3/84
f 51/1/79 57/8/11 60/2/47
f 53/1/80 60/8/47 59/2/49
f 54/1/85 59/8/49 58/2/86
f 55/1/87 58/8/86 56/2/88
f 41/1/41 61/8/14 63/2/89
f 43/1/54 63/8/89 64/2/90
f 44/1/91 64/8/90 65/2/92
f 45/1/93 65/8/92 62/2/4
f 66/8/16 68/2/95 63/3/89
f 68/8/95 69/2/96 64/3/90
f 69/8/96 70/2/98 65/3/97
f 70/8/98 67/2/30 62/3/99
f 66/1/16 72/8/21 75/2/59
f 68/1/95 75/8/59 74/2/61
f 69/1/100 74/8/61 73/2/101
f 70/1/102 73/8/101 71/2/103
f 31/1/46 76/8/10 78/2/104
f 33/1/48 78/8/104 79/2/105
f 34/1/106 79/8/105 80/2/107
f 35/1/108 80/8/107 77/2/2
f 81/8/45 83/2/110 78/3/104
f 83/8/110 84/2/111 79/3/105
f 84/8/111 85/2/113 80/3/112
f 85/8/113 82/2/23 77/3/114
f 81/1/45 87/8/40 90/2/53
f 83/1/110 90/8/53 89/2/55
f 84/1/115 89/8/55 88/2/116
f 85/1/117 88/8/116 86/2/118
f 36/1/44 91/8/42 93/2/119
f 38/1/60 93/8/119 94/2/120
f 39/1/121 94/8/120 95/2/122
f 40/1/123 95/8/122 92/2/6
f 96/8/43 98/2/125 93/3/119
f 98/8/125 99/2/126 94/3/120
f 99/8/126 100/2/128 95/3/127
f 100/8/128 97/2/34 92/3/129
f 96/1/43 102/8/8 105/2/66
f 98/1/125 105/8/66 104/2/68
f 99/1/130 104/8/68 103/2/131
f 100/1/132 103/8/131 101/2/133
f 1/1/13 27/8/78 47/2/77
